<svg width="193" height="54" viewBox="0 0 193 54" fill="none" xmlns="http://www.w3.org/2000/svg">
<path d="M4.36226 30C4.14892 30 3.97826 29.9253 3.85026 29.776C3.72226 29.6267 3.67959 29.4347 3.72226 29.2L8.13826 8.4C8.18092 8.16533 8.29826 7.97333 8.49026 7.824C8.68226 7.67467 8.88492 7.6 9.09826 7.6H24.0423C24.2769 7.6 24.4476 7.67467 24.5543 7.824C24.6823 7.97333 24.7249 8.16533 24.6823 8.4L24.0743 11.408C24.0316 11.6427 23.9143 11.8347 23.7223 11.984C23.5303 12.1333 23.3169 12.208 23.0823 12.208H12.8743L11.9463 16.528H21.4183C21.6529 16.528 21.8343 16.6133 21.9623 16.784C22.0903 16.9333 22.1329 17.1253 22.0903 17.36L21.4823 20.144C21.4396 20.3573 21.3223 20.5493 21.1303 20.72C20.9596 20.8693 20.7569 20.944 20.5223 20.944H11.0183L10.0903 25.392H20.5223C20.7569 25.392 20.9276 25.4667 21.0343 25.616C21.1623 25.7653 21.2049 25.9573 21.1623 26.192L20.5223 29.2C20.4796 29.4347 20.3623 29.6267 20.1703 29.776C19.9996 29.9253 19.7969 30 19.5623 30H4.36226ZM25.2165 30C24.9818 30 24.8005 29.9253 24.6725 29.776C24.5658 29.6267 24.5338 29.4347 24.5765 29.2L28.9925 8.4C29.0352 8.16533 29.1525 7.97333 29.3445 7.824C29.5365 7.67467 29.7498 7.6 29.9845 7.6H38.6885C41.4405 7.6 43.4672 8.24 44.7685 9.52C46.0912 10.7787 46.5072 12.5707 46.0165 14.896C45.6965 16.4107 45.0565 17.6907 44.0965 18.736C43.1578 19.7813 42.0378 20.5707 40.7365 21.104L43.4565 28.976C43.4778 29.04 43.4885 29.0933 43.4885 29.136C43.4885 29.1787 43.4778 29.2427 43.4565 29.328C43.4352 29.4987 43.3392 29.6587 43.1685 29.808C42.9978 29.936 42.8165 30 42.6245 30H38.4005C37.9952 30 37.7178 29.904 37.5685 29.712C37.4405 29.4987 37.3445 29.3067 37.2805 29.136L35.1365 22.096H31.8405L30.3365 29.2C30.2938 29.4347 30.1765 29.6267 29.9845 29.776C29.7925 29.9253 29.5792 30 29.3445 30H25.2165ZM32.8005 17.584H36.5125C37.5152 17.584 38.3152 17.3387 38.9125 16.848C39.5098 16.3573 39.9045 15.6853 40.0965 14.832C40.2672 14 40.1605 13.328 39.7765 12.816C39.4138 12.304 38.7098 12.048 37.6645 12.048H33.9845L32.8005 17.584ZM46.8935 30C46.6802 30 46.5095 29.9253 46.3815 29.776C46.2535 29.6267 46.2108 29.4347 46.2535 29.2L50.6695 8.4C50.7122 8.16533 50.8295 7.97333 51.0215 7.824C51.2135 7.67467 51.4162 7.6 51.6295 7.6H60.1415C61.4428 7.6 62.6162 7.74933 63.6615 8.048C64.7282 8.34667 65.6135 8.80533 66.3175 9.424C67.0215 10.0427 67.5122 10.8213 67.7895 11.76C68.0668 12.6773 68.0775 13.7547 67.8215 14.992C67.2882 17.4453 66.2002 19.2587 64.5575 20.432C62.9362 21.6053 60.7495 22.192 57.9975 22.192H53.6775L52.2055 29.2C52.1628 29.4347 52.0455 29.6267 51.8535 29.776C51.6828 29.9253 51.4802 30 51.2455 30H46.8935ZM54.5095 17.776H58.1895C59.0642 17.776 59.8428 17.5413 60.5255 17.072C61.2295 16.6027 61.6882 15.888 61.9015 14.928C62.0082 14.3733 62.0295 13.8827 61.9655 13.456C61.9015 13.0293 61.6775 12.688 61.2935 12.432C60.9308 12.176 60.3655 12.048 59.5975 12.048H55.7575L54.5095 17.776ZM75.488 30C75.2533 30 75.072 29.9253 74.944 29.776C74.816 29.6267 74.7733 29.4347 74.816 29.2L79.232 8.4C79.2747 8.16533 79.392 7.97333 79.584 7.824C79.776 7.67467 79.9893 7.6 80.224 7.6H83.68C84.0213 7.6 84.256 7.696 84.384 7.888C84.5333 8.05867 84.6293 8.19733 84.672 8.304L88.128 18.416L95.936 8.304C96 8.19733 96.128 8.05867 96.32 7.888C96.5333 7.696 96.8107 7.6 97.152 7.6H100.608C100.843 7.6 101.024 7.67467 101.152 7.824C101.28 7.97333 101.323 8.16533 101.28 8.4L96.864 29.2C96.8213 29.4347 96.704 29.6267 96.512 29.776C96.32 29.9253 96.1067 30 95.872 30H92.032C91.8187 30 91.648 29.9253 91.52 29.776C91.392 29.6267 91.3493 29.4347 91.392 29.2L93.888 17.392L88.992 23.888C88.8427 24.0587 88.6613 24.2293 88.448 24.4C88.256 24.5493 88.0107 24.624 87.712 24.624H86.048C85.7493 24.624 85.536 24.5493 85.408 24.4C85.28 24.2507 85.184 24.08 85.12 23.888L82.848 17.104L80.256 29.2C80.2133 29.4347 80.096 29.6267 79.904 29.776C79.7333 29.9253 79.5413 30 79.328 30H75.488ZM110.724 30.32C109.38 30.32 108.132 30.1387 106.98 29.776C105.828 29.4133 104.857 28.8693 104.068 28.144C103.279 27.4187 102.713 26.512 102.372 25.424C102.052 24.336 102.009 23.0667 102.244 21.616C102.415 20.6987 102.596 19.7813 102.788 18.864C103.001 17.9467 103.215 17.0187 103.428 16.08C104.132 13.2 105.401 11.0133 107.236 9.52C109.071 8.02667 111.545 7.28 114.66 7.28C116.004 7.28 117.241 7.472 118.372 7.856C119.524 8.21867 120.495 8.77333 121.284 9.52C122.095 10.2667 122.66 11.184 122.98 12.272C123.321 13.36 123.364 14.6293 123.108 16.08C122.959 17.0187 122.777 17.9467 122.564 18.864C122.372 19.7813 122.169 20.6987 121.956 21.616C121.231 24.5387 119.951 26.7253 118.116 28.176C116.281 29.6053 113.817 30.32 110.724 30.32ZM111.14 25.712C112.292 25.712 113.305 25.3707 114.18 24.688C115.055 24.0053 115.673 22.9173 116.036 21.424C116.271 20.4853 116.473 19.6 116.644 18.768C116.836 17.936 117.007 17.072 117.156 16.176C117.433 14.6827 117.305 13.5947 116.772 12.912C116.239 12.2293 115.396 11.888 114.244 11.888C113.092 11.888 112.079 12.2293 111.204 12.912C110.351 13.5947 109.743 14.6827 109.38 16.176C109.145 17.072 108.932 17.936 108.74 18.768C108.569 19.6 108.399 20.4853 108.228 21.424C107.972 22.9173 108.1 24.0053 108.612 24.688C109.124 25.3707 109.967 25.712 111.14 25.712ZM124.737 30C124.524 30 124.353 29.9253 124.225 29.776C124.097 29.6267 124.055 29.4347 124.097 29.2L128.513 8.4C128.556 8.16533 128.673 7.97333 128.865 7.824C129.057 7.67467 129.26 7.6 129.473 7.6H137.281C138.668 7.6 139.937 7.792 141.089 8.176C142.263 8.56 143.255 9.12533 144.065 9.872C144.897 10.5973 145.484 11.504 145.825 12.592C146.188 13.68 146.231 14.928 145.953 16.336C145.804 17.2747 145.655 18.096 145.505 18.8C145.356 19.504 145.164 20.3147 144.929 21.232C144.439 23.216 143.735 24.8587 142.817 26.16C141.9 27.4613 140.705 28.432 139.233 29.072C137.783 29.6907 135.948 30 133.729 30H124.737ZM130.657 25.392H134.017C134.956 25.392 135.756 25.2533 136.417 24.976C137.1 24.6773 137.655 24.2187 138.081 23.6C138.529 22.9813 138.871 22.1707 139.105 21.168C139.255 20.5493 139.383 19.9947 139.489 19.504C139.617 19.0133 139.724 18.5227 139.809 18.032C139.916 17.5413 140.023 16.9973 140.129 16.4C140.385 14.9493 140.225 13.8933 139.649 13.232C139.073 12.5493 138.081 12.208 136.673 12.208H133.473L130.657 25.392ZM147.644 30C147.43 30 147.26 29.9253 147.132 29.776C147.004 29.6267 146.961 29.4347 147.004 29.2L151.42 8.4C151.462 8.16533 151.58 7.97333 151.772 7.824C151.964 7.67467 152.166 7.6 152.38 7.6H167.324C167.558 7.6 167.729 7.67467 167.836 7.824C167.964 7.97333 168.006 8.16533 167.964 8.4L167.356 11.408C167.313 11.6427 167.196 11.8347 167.004 11.984C166.812 12.1333 166.598 12.208 166.364 12.208H156.156L155.228 16.528H164.7C164.934 16.528 165.116 16.6133 165.244 16.784C165.372 16.9333 165.414 17.1253 165.372 17.36L164.764 20.144C164.721 20.3573 164.604 20.5493 164.412 20.72C164.241 20.8693 164.038 20.944 163.804 20.944H154.3L153.372 25.392H163.804C164.038 25.392 164.209 25.4667 164.316 25.616C164.444 25.7653 164.486 25.9573 164.444 26.192L163.804 29.2C163.761 29.4347 163.644 29.6267 163.452 29.776C163.281 29.9253 163.078 30 162.844 30H147.644ZM168.05 30C167.836 30 167.666 29.9253 167.538 29.776C167.41 29.6267 167.367 29.4347 167.41 29.2L171.826 8.4C171.868 8.16533 171.986 7.97333 172.178 7.824C172.37 7.67467 172.572 7.6 172.786 7.6H177.01C177.244 7.6 177.426 7.67467 177.554 7.824C177.682 7.97333 177.724 8.16533 177.682 8.4L174.098 25.168H183.762C183.996 25.168 184.167 25.2533 184.274 25.424C184.402 25.5733 184.444 25.7653 184.402 26L183.73 29.2C183.687 29.4347 183.57 29.6267 183.378 29.776C183.207 29.9253 183.004 30 182.77 30H168.05Z" fill="#7E76CA"/>
<path d="M5.90604 50.16C5.01004 50.16 4.23671 50 3.58604 49.68C2.94604 49.36 2.45004 48.8747 2.09804 48.224C1.75671 47.5627 1.58604 46.7147 1.58604 45.68V39.184C1.58604 39.0667 1.61804 38.976 1.68204 38.912C1.74604 38.8373 1.83671 38.8 1.95404 38.8H2.77004C2.88737 38.8 2.97804 38.8373 3.04204 38.912C3.11671 38.976 3.15404 39.0667 3.15404 39.184V45.712C3.15404 46.7573 3.39937 47.5307 3.89004 48.032C4.38071 48.5333 5.05271 48.784 5.90604 48.784C6.74871 48.784 7.41537 48.5333 7.90604 48.032C8.40737 47.5307 8.65804 46.7573 8.65804 45.712V39.184C8.65804 39.0667 8.69004 38.976 8.75404 38.912C8.82871 38.8373 8.91937 38.8 9.02604 38.8H9.85804C9.96471 38.8 10.05 38.8373 10.114 38.912C10.1887 38.976 10.226 39.0667 10.226 39.184V45.68C10.226 46.7147 10.05 47.5627 9.69804 48.224C9.35671 48.8747 8.86604 49.36 8.22604 49.68C7.58604 50 6.81271 50.16 5.90604 50.16ZM13.2688 50C13.1515 50 13.0608 49.968 12.9968 49.904C12.9328 49.8293 12.9008 49.7387 12.9008 49.632V39.168C12.9008 39.0613 12.9328 38.976 12.9968 38.912C13.0608 38.8373 13.1515 38.8 13.2688 38.8H14.1168C14.2235 38.8 14.3088 38.8373 14.3728 38.912C14.4368 38.976 14.4688 39.0613 14.4688 39.168V48.608H19.7968C19.9141 48.608 20.0048 48.6453 20.0688 48.72C20.1328 48.784 20.1648 48.8747 20.1648 48.992V49.632C20.1648 49.7387 20.1328 49.8293 20.0688 49.904C20.0048 49.968 19.9141 50 19.7968 50H13.2688ZM22.8262 50C22.7195 50 22.6288 49.968 22.5542 49.904C22.4902 49.8293 22.4582 49.7387 22.4582 49.632V40.224H19.3862C19.2795 40.224 19.1888 40.192 19.1142 40.128C19.0502 40.0533 19.0182 39.9627 19.0182 39.856V39.184C19.0182 39.0667 19.0502 38.976 19.1142 38.912C19.1888 38.8373 19.2795 38.8 19.3862 38.8H27.0982C27.2155 38.8 27.3062 38.8373 27.3702 38.912C27.4448 38.976 27.4822 39.0667 27.4822 39.184V39.856C27.4822 39.9627 27.4448 40.0533 27.3702 40.128C27.3062 40.192 27.2155 40.224 27.0982 40.224H24.0422V49.632C24.0422 49.7387 24.0048 49.8293 23.9302 49.904C23.8662 49.968 23.7755 50 23.6582 50H22.8262ZM29.6438 50C29.5265 50 29.4358 49.968 29.3718 49.904C29.3078 49.8293 29.2758 49.7387 29.2758 49.632V39.168C29.2758 39.0613 29.3078 38.976 29.3718 38.912C29.4358 38.8373 29.5265 38.8 29.6438 38.8H30.4918C30.5985 38.8 30.6838 38.8373 30.7478 38.912C30.8225 38.976 30.8598 39.0613 30.8598 39.168V49.632C30.8598 49.7387 30.8225 49.8293 30.7478 49.904C30.6838 49.968 30.5985 50 30.4918 50H29.6438ZM34.0188 50C33.9121 50 33.8215 49.968 33.7468 49.904C33.6828 49.8293 33.6508 49.7387 33.6508 49.632V39.184C33.6508 39.0667 33.6828 38.976 33.7468 38.912C33.8215 38.8373 33.9121 38.8 34.0188 38.8H34.8188C34.9468 38.8 35.0428 38.832 35.1068 38.896C35.1708 38.96 35.2081 39.0133 35.2188 39.056L38.6108 45.52L42.0188 39.056C42.0401 39.0133 42.0775 38.96 42.1308 38.896C42.1948 38.832 42.2908 38.8 42.4188 38.8H43.2028C43.3201 38.8 43.4108 38.8373 43.4748 38.912C43.5495 38.976 43.5868 39.0667 43.5868 39.184V49.632C43.5868 49.7387 43.5495 49.8293 43.4748 49.904C43.4108 49.968 43.3201 50 43.2028 50H42.4188C42.3121 50 42.2215 49.968 42.1468 49.904C42.0828 49.8293 42.0508 49.7387 42.0508 49.632V41.76L39.3788 46.976C39.3361 47.0827 39.2721 47.168 39.1868 47.232C39.1015 47.2853 38.9948 47.312 38.8668 47.312H38.3708C38.2321 47.312 38.1201 47.2853 38.0348 47.232C37.9601 47.168 37.8961 47.0827 37.8428 46.976L35.1708 41.76V49.632C35.1708 49.7387 35.1335 49.8293 35.0588 49.904C34.9948 49.968 34.9095 50 34.8028 50H34.0188ZM45.6019 50C45.5166 50 45.4419 49.968 45.3779 49.904C45.3139 49.84 45.2819 49.7653 45.2819 49.68C45.2819 49.6267 45.2872 49.568 45.2979 49.504L49.2659 39.152C49.3086 39.0453 49.3672 38.96 49.4419 38.896C49.5166 38.832 49.6286 38.8 49.7779 38.8H50.8659C51.0046 38.8 51.1112 38.832 51.1859 38.896C51.2712 38.96 51.3352 39.0453 51.3779 39.152L55.3299 49.504C55.3512 49.568 55.3619 49.6267 55.3619 49.68C55.3619 49.7653 55.3299 49.84 55.2659 49.904C55.2019 49.968 55.1272 50 55.0419 50H54.2259C54.0979 50 54.0019 49.968 53.9379 49.904C53.8846 49.84 53.8472 49.7813 53.8259 49.728L52.9459 47.456H47.6979L46.8179 49.728C46.8072 49.7813 46.7699 49.84 46.7059 49.904C46.6419 49.968 46.5459 50 46.4179 50H45.6019ZM48.1619 46.08H52.4819L50.3219 40.4L48.1619 46.08ZM58.7012 50C58.5945 50 58.5038 49.968 58.4292 49.904C58.3652 49.8293 58.3332 49.7387 58.3332 49.632V40.224H55.2612C55.1545 40.224 55.0638 40.192 54.9892 40.128C54.9252 40.0533 54.8932 39.9627 54.8932 39.856V39.184C54.8932 39.0667 54.9252 38.976 54.9892 38.912C55.0638 38.8373 55.1545 38.8 55.2612 38.8H62.9732C63.0905 38.8 63.1812 38.8373 63.2452 38.912C63.3198 38.976 63.3572 39.0667 63.3572 39.184V39.856C63.3572 39.9627 63.3198 40.0533 63.2452 40.128C63.1812 40.192 63.0905 40.224 62.9732 40.224H59.9172V49.632C59.9172 49.7387 59.8798 49.8293 59.8052 49.904C59.7412 49.968 59.6505 50 59.5332 50H58.7012ZM65.5188 50C65.4015 50 65.3108 49.968 65.2468 49.904C65.1828 49.8293 65.1508 49.7387 65.1508 49.632V39.184C65.1508 39.0667 65.1828 38.976 65.2468 38.912C65.3108 38.8373 65.4015 38.8 65.5188 38.8H72.1268C72.2441 38.8 72.3348 38.8373 72.3988 38.912C72.4628 38.976 72.4948 39.0667 72.4948 39.184V39.792C72.4948 39.9093 72.4628 40 72.3988 40.064C72.3348 40.128 72.2441 40.16 72.1268 40.16H66.6868V43.664H71.7748C71.8921 43.664 71.9828 43.7013 72.0468 43.776C72.1108 43.84 72.1428 43.9307 72.1428 44.048V44.64C72.1428 44.7467 72.1108 44.8373 72.0468 44.912C71.9828 44.976 71.8921 45.008 71.7748 45.008H66.6868V48.64H72.2548C72.3721 48.64 72.4628 48.672 72.5268 48.736C72.5908 48.8 72.6228 48.8907 72.6228 49.008V49.632C72.6228 49.7387 72.5908 49.8293 72.5268 49.904C72.4628 49.968 72.3721 50 72.2548 50H65.5188ZM79.1438 50C79.0265 50 78.9358 49.968 78.8718 49.904C78.8078 49.8293 78.7758 49.7387 78.7758 49.632V39.184C78.7758 39.0667 78.8078 38.976 78.8718 38.912C78.9358 38.8373 79.0265 38.8 79.1438 38.8H83.5278C84.3278 38.8 84.9785 38.9333 85.4798 39.2C85.9918 39.456 86.3651 39.808 86.5998 40.256C86.8451 40.704 86.9678 41.2053 86.9678 41.76C86.9678 42.1973 86.8931 42.576 86.7438 42.896C86.6051 43.2053 86.4291 43.4613 86.2158 43.664C86.0025 43.856 85.7945 44.0053 85.5918 44.112C86.0078 44.3147 86.3758 44.6453 86.6958 45.104C87.0265 45.5627 87.1918 46.1173 87.1918 46.768C87.1918 47.3547 87.0585 47.8933 86.7918 48.384C86.5251 48.8747 86.1251 49.2693 85.5918 49.568C85.0691 49.856 84.4185 50 83.6398 50H79.1438ZM80.3438 48.704H83.4318C84.1251 48.704 84.6585 48.5173 85.0318 48.144C85.4051 47.7707 85.5918 47.312 85.5918 46.768C85.5918 46.2027 85.4051 45.7387 85.0318 45.376C84.6585 45.0027 84.1251 44.816 83.4318 44.816H80.3438V48.704ZM80.3438 43.536H83.2878C83.9705 43.536 84.4878 43.3813 84.8398 43.072C85.1918 42.752 85.3678 42.32 85.3678 41.776C85.3678 41.232 85.1918 40.816 84.8398 40.528C84.4878 40.24 83.9705 40.096 83.2878 40.096H80.3438V43.536ZM93.6873 50.16C92.7913 50.16 92.018 50 91.3673 49.68C90.7273 49.36 90.2313 48.8747 89.8793 48.224C89.538 47.5627 89.3673 46.7147 89.3673 45.68V39.184C89.3673 39.0667 89.3993 38.976 89.4633 38.912C89.5273 38.8373 89.618 38.8 89.7353 38.8H90.5513C90.6686 38.8 90.7593 38.8373 90.8233 38.912C90.898 38.976 90.9353 39.0667 90.9353 39.184V45.712C90.9353 46.7573 91.1806 47.5307 91.6713 48.032C92.162 48.5333 92.834 48.784 93.6873 48.784C94.53 48.784 95.1966 48.5333 95.6873 48.032C96.1886 47.5307 96.4393 46.7573 96.4393 45.712V39.184C96.4393 39.0667 96.4713 38.976 96.5353 38.912C96.61 38.8373 96.7006 38.8 96.8073 38.8H97.6393C97.746 38.8 97.8313 38.8373 97.8953 38.912C97.97 38.976 98.0073 39.0667 98.0073 39.184V45.68C98.0073 46.7147 97.8313 47.5627 97.4793 48.224C97.138 48.8747 96.6473 49.36 96.0073 49.68C95.3673 50 94.594 50.16 93.6873 50.16ZM104.282 50.16C103.354 50.16 102.575 50.0213 101.946 49.744C101.317 49.456 100.831 49.088 100.49 48.64C100.159 48.1813 99.9834 47.696 99.962 47.184C99.962 47.0987 99.994 47.024 100.058 46.96C100.133 46.8853 100.218 46.848 100.314 46.848H101.13C101.258 46.848 101.354 46.88 101.418 46.944C101.482 47.008 101.525 47.0827 101.546 47.168C101.599 47.424 101.727 47.68 101.93 47.936C102.143 48.1813 102.437 48.3893 102.81 48.56C103.194 48.72 103.685 48.8 104.282 48.8C105.199 48.8 105.871 48.64 106.298 48.32C106.735 47.9893 106.954 47.552 106.954 47.008C106.954 46.6347 106.837 46.336 106.602 46.112C106.378 45.8773 106.031 45.6693 105.562 45.488C105.093 45.3067 104.485 45.1093 103.738 44.896C102.959 44.672 102.314 44.4267 101.802 44.16C101.29 43.8933 100.906 43.5627 100.65 43.168C100.405 42.7733 100.282 42.272 100.282 41.664C100.282 41.088 100.437 40.576 100.746 40.128C101.055 39.6693 101.498 39.3067 102.074 39.04C102.661 38.7733 103.37 38.64 104.202 38.64C104.863 38.64 105.439 38.7307 105.93 38.912C106.431 39.0827 106.847 39.3173 107.178 39.616C107.509 39.904 107.759 40.2187 107.93 40.56C108.101 40.8907 108.191 41.216 108.202 41.536C108.202 41.6107 108.175 41.6853 108.122 41.76C108.069 41.824 107.983 41.856 107.866 41.856H107.018C106.943 41.856 106.863 41.8347 106.778 41.792C106.703 41.7493 106.645 41.6693 106.602 41.552C106.538 41.1147 106.293 40.7467 105.866 40.448C105.439 40.1493 104.885 40 104.202 40C103.509 40 102.943 40.1333 102.506 40.4C102.079 40.6667 101.866 41.0827 101.866 41.648C101.866 42.0107 101.967 42.3147 102.17 42.56C102.373 42.7947 102.693 43.0027 103.13 43.184C103.567 43.3653 104.138 43.5573 104.842 43.76C105.695 43.9947 106.394 44.2453 106.938 44.512C107.482 44.768 107.882 45.0933 108.138 45.488C108.405 45.872 108.538 46.368 108.538 46.976C108.538 47.648 108.362 48.224 108.01 48.704C107.658 49.1733 107.162 49.536 106.522 49.792C105.893 50.0373 105.146 50.16 104.282 50.16ZM111.003 50C110.886 50 110.795 49.968 110.731 49.904C110.667 49.8293 110.635 49.7387 110.635 49.632V39.168C110.635 39.0613 110.667 38.976 110.731 38.912C110.795 38.8373 110.886 38.8 111.003 38.8H111.851C111.958 38.8 112.043 38.8373 112.107 38.912C112.182 38.976 112.219 39.0613 112.219 39.168V49.632C112.219 49.7387 112.182 49.8293 112.107 49.904C112.043 49.968 111.958 50 111.851 50H111.003ZM115.378 50C115.261 50 115.17 49.968 115.106 49.904C115.042 49.8293 115.01 49.7387 115.01 49.632V39.184C115.01 39.0667 115.042 38.976 115.106 38.912C115.17 38.8373 115.261 38.8 115.378 38.8H116.114C116.242 38.8 116.338 38.832 116.402 38.896C116.466 38.9493 116.503 38.992 116.514 39.024L121.826 47.184V39.184C121.826 39.0667 121.858 38.976 121.922 38.912C121.986 38.8373 122.077 38.8 122.194 38.8H122.962C123.079 38.8 123.17 38.8373 123.234 38.912C123.309 38.976 123.346 39.0667 123.346 39.184V49.616C123.346 49.7227 123.309 49.8133 123.234 49.888C123.17 49.9627 123.085 50 122.978 50H122.21C122.093 50 122.002 49.968 121.938 49.904C121.885 49.84 121.847 49.7973 121.826 49.776L116.53 41.696V49.632C116.53 49.7387 116.493 49.8293 116.418 49.904C116.354 49.968 116.263 50 116.146 50H115.378ZM126.488 50C126.37 50 126.28 49.968 126.216 49.904C126.152 49.8293 126.12 49.7387 126.12 49.632V39.184C126.12 39.0667 126.152 38.976 126.216 38.912C126.28 38.8373 126.37 38.8 126.488 38.8H133.096C133.213 38.8 133.304 38.8373 133.368 38.912C133.432 38.976 133.464 39.0667 133.464 39.184V39.792C133.464 39.9093 133.432 40 133.368 40.064C133.304 40.128 133.213 40.16 133.096 40.16H127.656V43.664H132.744C132.861 43.664 132.952 43.7013 133.016 43.776C133.08 43.84 133.112 43.9307 133.112 44.048V44.64C133.112 44.7467 133.08 44.8373 133.016 44.912C132.952 44.976 132.861 45.008 132.744 45.008H127.656V48.64H133.224C133.341 48.64 133.432 48.672 133.496 48.736C133.56 48.8 133.592 48.8907 133.592 49.008V49.632C133.592 49.7387 133.56 49.8293 133.496 49.904C133.432 49.968 133.341 50 133.224 50H126.488ZM139.423 50.16C138.495 50.16 137.716 50.0213 137.087 49.744C136.457 49.456 135.972 49.088 135.631 48.64C135.3 48.1813 135.124 47.696 135.103 47.184C135.103 47.0987 135.135 47.024 135.199 46.96C135.273 46.8853 135.359 46.848 135.455 46.848H136.271C136.399 46.848 136.495 46.88 136.559 46.944C136.623 47.008 136.665 47.0827 136.687 47.168C136.74 47.424 136.868 47.68 137.071 47.936C137.284 48.1813 137.577 48.3893 137.951 48.56C138.335 48.72 138.825 48.8 139.423 48.8C140.34 48.8 141.012 48.64 141.439 48.32C141.876 47.9893 142.095 47.552 142.095 47.008C142.095 46.6347 141.977 46.336 141.743 46.112C141.519 45.8773 141.172 45.6693 140.703 45.488C140.233 45.3067 139.625 45.1093 138.879 44.896C138.1 44.672 137.455 44.4267 136.943 44.16C136.431 43.8933 136.047 43.5627 135.791 43.168C135.545 42.7733 135.423 42.272 135.423 41.664C135.423 41.088 135.577 40.576 135.887 40.128C136.196 39.6693 136.639 39.3067 137.215 39.04C137.801 38.7733 138.511 38.64 139.343 38.64C140.004 38.64 140.58 38.7307 141.071 38.912C141.572 39.0827 141.988 39.3173 142.319 39.616C142.649 39.904 142.9 40.2187 143.071 40.56C143.241 40.8907 143.332 41.216 143.343 41.536C143.343 41.6107 143.316 41.6853 143.263 41.76C143.209 41.824 143.124 41.856 143.007 41.856H142.159C142.084 41.856 142.004 41.8347 141.919 41.792C141.844 41.7493 141.785 41.6693 141.743 41.552C141.679 41.1147 141.433 40.7467 141.007 40.448C140.58 40.1493 140.025 40 139.343 40C138.649 40 138.084 40.1333 137.647 40.4C137.22 40.6667 137.007 41.0827 137.007 41.648C137.007 42.0107 137.108 42.3147 137.311 42.56C137.513 42.7947 137.833 43.0027 138.271 43.184C138.708 43.3653 139.279 43.5573 139.983 43.76C140.836 43.9947 141.535 44.2453 142.079 44.512C142.623 44.768 143.023 45.0933 143.279 45.488C143.545 45.872 143.679 46.368 143.679 46.976C143.679 47.648 143.503 48.224 143.151 48.704C142.799 49.1733 142.303 49.536 141.663 49.792C141.033 50.0373 140.287 50.16 139.423 50.16ZM149.376 50.16C148.448 50.16 147.669 50.0213 147.04 49.744C146.41 49.456 145.925 49.088 145.584 48.64C145.253 48.1813 145.077 47.696 145.056 47.184C145.056 47.0987 145.088 47.024 145.152 46.96C145.226 46.8853 145.312 46.848 145.408 46.848H146.224C146.352 46.848 146.448 46.88 146.512 46.944C146.576 47.008 146.618 47.0827 146.64 47.168C146.693 47.424 146.821 47.68 147.024 47.936C147.237 48.1813 147.53 48.3893 147.904 48.56C148.288 48.72 148.778 48.8 149.376 48.8C150.293 48.8 150.965 48.64 151.392 48.32C151.829 47.9893 152.048 47.552 152.048 47.008C152.048 46.6347 151.93 46.336 151.696 46.112C151.472 45.8773 151.125 45.6693 150.656 45.488C150.186 45.3067 149.578 45.1093 148.832 44.896C148.053 44.672 147.408 44.4267 146.896 44.16C146.384 43.8933 146 43.5627 145.744 43.168C145.498 42.7733 145.376 42.272 145.376 41.664C145.376 41.088 145.53 40.576 145.84 40.128C146.149 39.6693 146.592 39.3067 147.168 39.04C147.754 38.7733 148.464 38.64 149.296 38.64C149.957 38.64 150.533 38.7307 151.024 38.912C151.525 39.0827 151.941 39.3173 152.272 39.616C152.602 39.904 152.853 40.2187 153.024 40.56C153.194 40.8907 153.285 41.216 153.296 41.536C153.296 41.6107 153.269 41.6853 153.216 41.76C153.162 41.824 153.077 41.856 152.96 41.856H152.112C152.037 41.856 151.957 41.8347 151.872 41.792C151.797 41.7493 151.738 41.6693 151.696 41.552C151.632 41.1147 151.386 40.7467 150.96 40.448C150.533 40.1493 149.978 40 149.296 40C148.602 40 148.037 40.1333 147.6 40.4C147.173 40.6667 146.96 41.0827 146.96 41.648C146.96 42.0107 147.061 42.3147 147.264 42.56C147.466 42.7947 147.786 43.0027 148.224 43.184C148.661 43.3653 149.232 43.5573 149.936 43.76C150.789 43.9947 151.488 44.2453 152.032 44.512C152.576 44.768 152.976 45.0933 153.232 45.488C153.498 45.872 153.632 46.368 153.632 46.976C153.632 47.648 153.456 48.224 153.104 48.704C152.752 49.1733 152.256 49.536 151.616 49.792C150.986 50.0373 150.24 50.16 149.376 50.16ZM160.019 50C159.901 50 159.811 49.968 159.747 49.904C159.683 49.8293 159.651 49.7387 159.651 49.632V39.184C159.651 39.0667 159.683 38.976 159.747 38.912C159.811 38.8373 159.901 38.8 160.019 38.8H166.627C166.744 38.8 166.835 38.8373 166.899 38.912C166.963 38.976 166.995 39.0667 166.995 39.184V39.792C166.995 39.9093 166.963 40 166.899 40.064C166.835 40.128 166.744 40.16 166.627 40.16H161.187V43.664H166.275C166.392 43.664 166.483 43.7013 166.547 43.776C166.611 43.84 166.643 43.9307 166.643 44.048V44.64C166.643 44.7467 166.611 44.8373 166.547 44.912C166.483 44.976 166.392 45.008 166.275 45.008H161.187V48.64H166.755C166.872 48.64 166.963 48.672 167.027 48.736C167.091 48.8 167.123 48.8907 167.123 49.008V49.632C167.123 49.7387 167.091 49.8293 167.027 49.904C166.963 49.968 166.872 50 166.755 50H160.019ZM169.722 50C169.605 50 169.514 49.968 169.45 49.904C169.386 49.8293 169.354 49.7387 169.354 49.632V39.184C169.354 39.0667 169.386 38.976 169.45 38.912C169.514 38.8373 169.605 38.8 169.722 38.8H173.626C174.831 38.8 175.786 39.0827 176.49 39.648C177.194 40.2133 177.546 41.0507 177.546 42.16C177.546 42.9813 177.338 43.6533 176.922 44.176C176.517 44.688 175.962 45.0453 175.258 45.248L177.722 49.504C177.754 49.568 177.77 49.6267 177.77 49.68C177.77 49.7653 177.733 49.84 177.658 49.904C177.594 49.968 177.519 50 177.434 50H176.666C176.485 50 176.351 49.952 176.266 49.856C176.181 49.76 176.106 49.664 176.042 49.568L173.722 45.504H170.922V49.632C170.922 49.7387 170.885 49.8293 170.81 49.904C170.746 49.968 170.655 50 170.538 50H169.722ZM170.922 44.144H173.562C174.362 44.144 174.959 43.9787 175.354 43.648C175.749 43.3067 175.946 42.8053 175.946 42.144C175.946 41.4933 175.749 40.9973 175.354 40.656C174.97 40.3147 174.373 40.144 173.562 40.144H170.922V44.144ZM180.206 50C180.089 50 179.998 49.968 179.934 49.904C179.87 49.8293 179.838 49.7387 179.838 49.632V39.184C179.838 39.0667 179.87 38.976 179.934 38.912C179.998 38.8373 180.089 38.8 180.206 38.8H184.27C185.06 38.8 185.742 38.928 186.318 39.184C186.905 39.44 187.358 39.824 187.678 40.336C187.998 40.8373 188.158 41.4667 188.158 42.224C188.158 42.9813 187.998 43.6107 187.678 44.112C187.358 44.6133 186.905 44.992 186.318 45.248C185.742 45.504 185.06 45.632 184.27 45.632H181.438V49.632C181.438 49.7387 181.401 49.8293 181.326 49.904C181.262 49.968 181.172 50 181.054 50H180.206ZM181.422 44.288H184.19C184.98 44.288 185.572 44.112 185.966 43.76C186.361 43.408 186.558 42.896 186.558 42.224C186.558 41.5627 186.366 41.0507 185.982 40.688C185.598 40.3253 185.001 40.144 184.19 40.144H181.422V44.288Z" fill="#7C858C"/>
</svg>
