<svg width="24" height="24" viewBox="0 0 24 24" fill="none" xmlns="http://www.w3.org/2000/svg">
<path d="M18.885 19.4893H18.615C17.865 19.4893 17.2499 19.0018 17.2499 18.3643V18.263H17.9999V18.3643C17.9999 18.533 18.2624 18.7393 18.615 18.7393H18.885C19.2376 18.7393 19.5001 18.5518 19.5001 18.3643C19.5001 18.1768 19.3238 18.0606 19.0238 18.0155L18.3751 17.9367C18.0908 17.9205 17.8216 17.8038 17.6155 17.6072C17.4094 17.4109 17.2799 17.1474 17.2501 16.8643C17.2501 16.2455 17.8501 15.7393 18.6152 15.7393H18.8852C19.6352 15.7393 20.2503 16.2268 20.2503 16.8643V16.9655H19.5001V16.8643C19.5001 16.6955 19.2376 16.4893 18.885 16.4893H18.615C18.2624 16.4893 17.9999 16.6768 17.9999 16.8643C17.9999 17.0518 18.1762 17.1679 18.4762 17.213L19.1361 17.3104L19.1363 17.3106C19.4235 17.3273 19.6951 17.4468 19.9015 17.6471C20.1081 17.8475 20.2356 18.1152 20.2612 18.4017C20.25 19.0017 19.65 19.4892 18.885 19.4892L18.885 19.4893Z" fill="black"/>
<path d="M18.375 15.3643H19.125V16.1143H18.375V15.3643Z" fill="black"/>
<path d="M18.375 19.1143H19.125V19.8643H18.375V19.1143Z" fill="black"/>
<path d="M16.5 4.48926H15.375V3.73926H16.125V1.48926H1.5V3.73926H2.625V4.48926H1.125C0.917914 4.48926 0.75 4.32134 0.75 4.11426V1.11426C0.75 0.907172 0.917914 0.739258 1.125 0.739258H16.5C16.5994 0.739258 16.6949 0.778767 16.7652 0.849079C16.8355 0.919392 16.875 1.01482 16.875 1.11426V4.11426C16.875 4.2137 16.8355 4.30912 16.7652 4.37944C16.6949 4.44975 16.5994 4.48926 16.5 4.48926Z" fill="black"/>
<path d="M3 19.1143H2.25V2.61426C2.25 2.40717 2.41791 2.23926 2.625 2.23926H15C15.0994 2.23926 15.1949 2.27877 15.2652 2.34908C15.3355 2.41939 15.375 2.51482 15.375 2.61426V5.61426H14.625V2.98926H3V19.1143Z" fill="black"/>
<path d="M21.375 23.2617C21.1679 23.2617 21 23.0939 21 22.8867V22.1367H19.875V22.8867C19.875 22.9861 19.8355 23.0815 19.7652 23.1519C19.6949 23.2222 19.5994 23.2617 19.5 23.2617H17.625C17.4179 23.2617 17.25 23.0939 17.25 22.8867V22.1143H16.125V22.8643C16.125 22.9637 16.0855 23.0591 16.0152 23.1294C15.9449 23.1997 15.8494 23.2393 15.75 23.2393H13.875C13.6679 23.2393 13.5 23.0713 13.5 22.8643V22.1143H12.375V22.8643C12.375 22.9637 12.3355 23.0591 12.2652 23.1294C12.1949 23.1997 12.0994 23.2393 12 23.2393H10.125C9.91791 23.2393 9.75 23.0713 9.75 22.8643V7.11426H10.5V22.4893H11.625V21.7393C11.625 21.5322 11.7929 21.3643 12 21.3643H13.875C13.9744 21.3643 14.0699 21.4038 14.1402 21.4741C14.2105 21.5444 14.25 21.6398 14.25 21.7393V22.4893H15.375V21.7393C15.375 21.5322 15.5429 21.3643 15.75 21.3643H17.625C17.7244 21.3643 17.8199 21.4038 17.8902 21.4741C17.9605 21.5444 18 21.6398 18 21.7393V22.4893H19.125V21.7393C19.1253 21.639 19.1658 21.5432 19.2375 21.4731C19.309 21.4063 19.4022 21.3676 19.5 21.3643L21.375 21.3867C21.4744 21.3867 21.5699 21.4262 21.6402 21.4965C21.7105 21.567 21.75 21.6622 21.75 21.7617V22.5117H22.5V7.48941H23.25V22.8644C23.25 22.9638 23.2105 23.0593 23.1402 23.1296C23.0699 23.1999 22.9744 23.2394 22.875 23.2394L21.375 23.2617Z" fill="black"/>
<path d="M4.5 21.3643C3.90317 21.3643 3.33099 21.1272 2.90893 20.7053C2.48705 20.2833 2.25 19.7111 2.25 19.1143H3C3 19.6501 3.28594 20.1454 3.75 20.4133C4.21406 20.6812 4.78594 20.6812 5.25 20.4133C5.71406 20.1453 6 19.6501 6 19.1143V7.48926H6.75V19.1143C6.75 19.7111 6.51295 20.2833 6.09107 20.7053C5.66903 21.1272 5.09683 21.3643 4.5 21.3643Z" fill="black"/>
<path d="M10.5 7.48922H9.75C9.75 6.95334 9.46406 6.45812 9 6.19014C8.53594 5.92228 7.96406 5.92228 7.5 6.19014C7.03594 6.45816 6.75 6.95338 6.75 7.48922H6C6 6.68531 6.42891 5.94251 7.125 5.54072C7.82109 5.13877 8.67891 5.13877 9.375 5.54072C10.0711 5.94251 10.5 6.68531 10.5 7.48922Z" fill="black"/>
<path d="M23.25 7.48926H22.5C22.5 7.09149 22.342 6.70994 22.0607 6.42854C21.7793 6.14729 21.3978 5.98926 21 5.98926V5.23926C21.5968 5.23926 22.169 5.47631 22.5911 5.89819C23.0129 6.32023 23.25 6.89243 23.25 7.48926Z" fill="black"/>
<path d="M4.125 20.6143H9.75V21.3643H4.125V20.6143Z" fill="black"/>
<path d="M8.25 5.23926H21V5.98926H8.25V5.23926Z" fill="black"/>
<path d="M12 7.48926H21V8.23926H12V7.48926Z" fill="black"/>
<path d="M12 9.36426H21V10.1143H12V9.36426Z" fill="black"/>
<path d="M12 11.2393H21V11.9893H12V11.2393Z" fill="black"/>
<path d="M12 13.1143H21V13.8643H12V13.1143Z" fill="black"/>
<path d="M12 14.9893H16.5V15.7393H12V14.9893Z" fill="black"/>
<path d="M12 16.8643H16.5V17.6143H12V16.8643Z" fill="black"/>
<path d="M12 18.7393H16.5V19.4893H12V18.7393Z" fill="black"/>
</svg>
