<svg width="182" height="24" viewBox="0 0 182 24" fill="none" xmlns="http://www.w3.org/2000/svg">
<path d="M1.024 23C0.810667 23 0.64 22.9253 0.512 22.776C0.384 22.6267 0.341333 22.4347 0.384 22.2L4.8 1.4C4.84267 1.16533 4.96 0.973332 5.152 0.823999C5.344 0.674665 5.54667 0.599998 5.76 0.599998H20.704C20.9387 0.599998 21.1093 0.674665 21.216 0.823999C21.344 0.973332 21.3867 1.16533 21.344 1.4L20.736 4.408C20.6933 4.64267 20.576 4.83467 20.384 4.984C20.192 5.13333 19.9787 5.208 19.744 5.208H9.536L8.608 9.528H18.08C18.3147 9.528 18.496 9.61333 18.624 9.784C18.752 9.93333 18.7947 10.1253 18.752 10.36L18.144 13.144C18.1013 13.3573 17.984 13.5493 17.792 13.72C17.6213 13.8693 17.4187 13.944 17.184 13.944H7.68L6.752 18.392H17.184C17.4187 18.392 17.5893 18.4667 17.696 18.616C17.824 18.7653 17.8667 18.9573 17.824 19.192L17.184 22.2C17.1413 22.4347 17.024 22.6267 16.832 22.776C16.6613 22.9253 16.4587 23 16.224 23H1.024ZM21.8783 23C21.6436 23 21.4623 22.9253 21.3343 22.776C21.2276 22.6267 21.1956 22.4347 21.2383 22.2L25.6543 1.4C25.6969 1.16533 25.8143 0.973332 26.0063 0.823999C26.1983 0.674665 26.4116 0.599998 26.6463 0.599998H35.3503C38.1023 0.599998 40.1289 1.24 41.4303 2.52C42.7529 3.77867 43.1689 5.57067 42.6783 7.896C42.3583 9.41067 41.7183 10.6907 40.7583 11.736C39.8196 12.7813 38.6996 13.5707 37.3983 14.104L40.1183 21.976C40.1396 22.04 40.1503 22.0933 40.1503 22.136C40.1503 22.1787 40.1396 22.2427 40.1183 22.328C40.0969 22.4987 40.0009 22.6587 39.8303 22.808C39.6596 22.936 39.4783 23 39.2863 23H35.0623C34.6569 23 34.3796 22.904 34.2303 22.712C34.1023 22.4987 34.0063 22.3067 33.9423 22.136L31.7983 15.096H28.5023L26.9983 22.2C26.9556 22.4347 26.8383 22.6267 26.6463 22.776C26.4543 22.9253 26.2409 23 26.0063 23H21.8783ZM29.4623 10.584H33.1743C34.1769 10.584 34.9769 10.3387 35.5743 9.848C36.1716 9.35733 36.5663 8.68533 36.7583 7.832C36.9289 7 36.8223 6.328 36.4383 5.816C36.0756 5.304 35.3716 5.048 34.3263 5.048H30.6463L29.4623 10.584ZM43.5553 23C43.3419 23 43.1713 22.9253 43.0433 22.776C42.9153 22.6267 42.8726 22.4347 42.9153 22.2L47.3313 1.4C47.3739 1.16533 47.4913 0.973332 47.6833 0.823999C47.8753 0.674665 48.0779 0.599998 48.2913 0.599998H56.8033C58.1046 0.599998 59.2779 0.749332 60.3233 1.048C61.3899 1.34667 62.2753 1.80533 62.9793 2.424C63.6833 3.04267 64.1739 3.82133 64.4513 4.76C64.7286 5.67733 64.7393 6.75467 64.4833 7.992C63.9499 10.4453 62.8619 12.2587 61.2193 13.432C59.5979 14.6053 57.4113 15.192 54.6593 15.192H50.3393L48.8673 22.2C48.8246 22.4347 48.7073 22.6267 48.5153 22.776C48.3446 22.9253 48.1419 23 47.9073 23H43.5553ZM51.1713 10.776H54.8513C55.7259 10.776 56.5046 10.5413 57.1873 10.072C57.8913 9.60267 58.3499 8.888 58.5633 7.928C58.6699 7.37333 58.6913 6.88267 58.6273 6.456C58.5633 6.02933 58.3393 5.688 57.9553 5.432C57.5926 5.176 57.0273 5.048 56.2593 5.048H52.4193L51.1713 10.776ZM72.1497 23C71.9151 23 71.7338 22.9253 71.6058 22.776C71.4778 22.6267 71.4351 22.4347 71.4778 22.2L75.8938 1.4C75.9364 1.16533 76.0538 0.973332 76.2458 0.823999C76.4378 0.674665 76.6511 0.599998 76.8858 0.599998H80.3418C80.6831 0.599998 80.9178 0.695999 81.0458 0.887999C81.1951 1.05867 81.2911 1.19733 81.3338 1.304L84.7898 11.416L92.5978 1.304C92.6618 1.19733 92.7898 1.05867 92.9818 0.887999C93.1951 0.695999 93.4724 0.599998 93.8138 0.599998H97.2698C97.5044 0.599998 97.6858 0.674665 97.8138 0.823999C97.9418 0.973332 97.9844 1.16533 97.9418 1.4L93.5258 22.2C93.4831 22.4347 93.3658 22.6267 93.1738 22.776C92.9818 22.9253 92.7684 23 92.5338 23H88.6938C88.4804 23 88.3098 22.9253 88.1818 22.776C88.0538 22.6267 88.0111 22.4347 88.0538 22.2L90.5498 10.392L85.6538 16.888C85.5044 17.0587 85.3231 17.2293 85.1098 17.4C84.9178 17.5493 84.6724 17.624 84.3738 17.624H82.7098C82.4111 17.624 82.1978 17.5493 82.0698 17.4C81.9418 17.2507 81.8458 17.08 81.7818 16.888L79.5098 10.104L76.9178 22.2C76.8751 22.4347 76.7578 22.6267 76.5658 22.776C76.3951 22.9253 76.2031 23 75.9898 23H72.1497ZM107.386 23.32C106.042 23.32 104.794 23.1387 103.642 22.776C102.49 22.4133 101.519 21.8693 100.73 21.144C99.9404 20.4187 99.3751 19.512 99.0338 18.424C98.7138 17.336 98.6711 16.0667 98.9058 14.616C99.0764 13.6987 99.2578 12.7813 99.4498 11.864C99.6631 10.9467 99.8764 10.0187 100.09 9.08C100.794 6.2 102.063 4.01333 103.898 2.52C105.732 1.02667 108.207 0.279999 111.322 0.279999C112.666 0.279999 113.903 0.471999 115.034 0.855999C116.186 1.21867 117.156 1.77333 117.946 2.52C118.756 3.26667 119.322 4.184 119.642 5.272C119.983 6.36 120.026 7.62933 119.77 9.08C119.62 10.0187 119.439 10.9467 119.226 11.864C119.034 12.7813 118.831 13.6987 118.618 14.616C117.892 17.5387 116.612 19.7253 114.778 21.176C112.943 22.6053 110.479 23.32 107.386 23.32ZM107.802 18.712C108.954 18.712 109.967 18.3707 110.842 17.688C111.716 17.0053 112.335 15.9173 112.698 14.424C112.932 13.4853 113.135 12.6 113.306 11.768C113.498 10.936 113.668 10.072 113.818 9.176C114.095 7.68267 113.967 6.59467 113.434 5.912C112.9 5.22933 112.058 4.888 110.906 4.888C109.754 4.888 108.74 5.22933 107.866 5.912C107.012 6.59467 106.404 7.68267 106.042 9.176C105.807 10.072 105.594 10.936 105.402 11.768C105.231 12.6 105.06 13.4853 104.89 14.424C104.634 15.9173 104.762 17.0053 105.274 17.688C105.786 18.3707 106.628 18.712 107.802 18.712ZM121.399 23C121.186 23 121.015 22.9253 120.887 22.776C120.759 22.6267 120.716 22.4347 120.759 22.2L125.175 1.4C125.218 1.16533 125.335 0.973332 125.527 0.823999C125.719 0.674665 125.922 0.599998 126.135 0.599998H133.943C135.33 0.599998 136.599 0.791999 137.751 1.176C138.924 1.56 139.916 2.12533 140.727 2.872C141.559 3.59733 142.146 4.504 142.487 5.592C142.85 6.68 142.892 7.928 142.615 9.336C142.466 10.2747 142.316 11.096 142.167 11.8C142.018 12.504 141.826 13.3147 141.591 14.232C141.1 16.216 140.396 17.8587 139.479 19.16C138.562 20.4613 137.367 21.432 135.895 22.072C134.444 22.6907 132.61 23 130.391 23H121.399ZM127.319 18.392H130.679C131.618 18.392 132.418 18.2533 133.079 17.976C133.762 17.6773 134.316 17.2187 134.743 16.6C135.191 15.9813 135.532 15.1707 135.767 14.168C135.916 13.5493 136.044 12.9947 136.151 12.504C136.279 12.0133 136.386 11.5227 136.471 11.032C136.578 10.5413 136.684 9.99733 136.791 9.4C137.047 7.94933 136.887 6.89333 136.311 6.232C135.735 5.54933 134.743 5.208 133.335 5.208H130.135L127.319 18.392ZM144.305 23C144.092 23 143.921 22.9253 143.793 22.776C143.665 22.6267 143.623 22.4347 143.665 22.2L148.081 1.4C148.124 1.16533 148.241 0.973332 148.433 0.823999C148.625 0.674665 148.828 0.599998 149.041 0.599998H163.985C164.22 0.599998 164.391 0.674665 164.497 0.823999C164.625 0.973332 164.668 1.16533 164.625 1.4L164.017 4.408C163.975 4.64267 163.857 4.83467 163.665 4.984C163.473 5.13333 163.26 5.208 163.025 5.208H152.817L151.889 9.528H161.361C161.596 9.528 161.777 9.61333 161.905 9.784C162.033 9.93333 162.076 10.1253 162.033 10.36L161.425 13.144C161.383 13.3573 161.265 13.5493 161.073 13.72C160.903 13.8693 160.7 13.944 160.465 13.944H150.961L150.033 18.392H160.465C160.7 18.392 160.871 18.4667 160.977 18.616C161.105 18.7653 161.148 18.9573 161.105 19.192L160.465 22.2C160.423 22.4347 160.305 22.6267 160.113 22.776C159.943 22.9253 159.74 23 159.505 23H144.305ZM164.712 23C164.498 23 164.328 22.9253 164.2 22.776C164.072 22.6267 164.029 22.4347 164.072 22.2L168.488 1.4C168.53 1.16533 168.648 0.973332 168.84 0.823999C169.032 0.674665 169.234 0.599998 169.448 0.599998H173.672C173.906 0.599998 174.088 0.674665 174.216 0.823999C174.344 0.973332 174.386 1.16533 174.344 1.4L170.76 18.168H180.424C180.658 18.168 180.829 18.2533 180.936 18.424C181.064 18.5733 181.106 18.7653 181.064 19L180.392 22.2C180.349 22.4347 180.232 22.6267 180.04 22.776C179.869 22.9253 179.666 23 179.432 23H164.712Z" fill="#3A67D2"/>
</svg>
