<svg width="22" height="22" viewBox="0 0 22 22" fill="none" xmlns="http://www.w3.org/2000/svg">
<path d="M11 8.30566C13.2748 8.30566 15.125 6.45544 15.125 4.18066C15.125 1.90589 13.2748 0.0556641 11 0.0556641C8.72523 0.0556641 6.875 1.90589 6.875 4.18066C6.875 6.45544 8.72523 8.30566 11 8.30566ZM11 0.805664C12.8608 0.805664 14.375 2.31989 14.375 4.18066C14.375 6.04144 12.8608 7.55566 11 7.55566C9.13923 7.55566 7.625 6.04144 7.625 4.18066C7.625 2.31989 9.13923 0.805664 11 0.805664Z" fill="black"/>
<path d="M12.239 5.90269C12.3125 5.9725 12.4062 6.00782 12.5 6.00782C12.5974 6.00782 12.6957 5.96965 12.7692 5.89381C12.9132 5.74532 12.9095 5.5076 12.7601 5.36363L11.375 4.02181V1.88281C11.375 1.67589 11.2069 1.50781 11 1.50781C10.7931 1.50781 10.625 1.67589 10.625 1.88281V4.18004C10.625 4.28133 10.6662 4.37876 10.739 4.44924L12.239 5.90269Z" fill="black"/>
<path d="M20.75 15.9453H16.25V12.0078H17.375C17.3802 12.0072 17.3855 12.0078 17.3901 12.0078C17.597 12.0078 17.7651 11.8397 17.7651 11.6328C17.7651 11.521 17.7163 11.4205 17.6383 11.3516L16.1871 9.17438C16.1825 9.16769 16.1743 9.16685 16.1698 9.16082C16.1278 9.10457 16.0739 9.05954 16.0071 9.0341C15.9989 9.03108 15.9914 9.03192 15.9832 9.02958C15.9487 9.01903 15.9133 9.00781 15.8752 9.00781H6.12517C5.98337 9.00781 5.85363 9.088 5.78985 9.21473L4.28985 12.2147C4.23142 12.3309 4.23812 12.469 4.30642 12.5792C4.37473 12.6895 4.49543 12.757 4.62517 12.757H5.75V15.9445H1.25C1.04308 15.9445 0.875 16.1126 0.875 16.3195V21.5695C0.875 21.7764 1.04308 21.9445 1.25 21.9445H20.75C20.9569 21.9445 21.125 21.7764 21.125 21.5695V16.3195C21.125 16.1132 20.9569 15.9453 20.75 15.9453L20.75 15.9453ZM16.25 11.2576V10.6208L16.6745 11.2576H16.25ZM15.5 11.6326V15.7576H12.5V9.75761H15.5V11.6326ZM6.35685 9.75761H11.5181L10.3931 12.0076H5.23185L6.35685 9.75761ZM10.6252 12.7576C10.767 12.7576 10.8967 12.6774 10.9605 12.5507L11.7502 10.971V15.7573H6.50017V12.7573L10.6252 12.7576ZM1.62516 16.6951H6.87516V21.1951H1.62516V16.6951ZM7.62516 16.6951H10.6252V21.1951H7.62516V16.6951ZM11.3752 16.6951H16.6252V21.1951H11.3752V16.6951ZM20.3752 21.1951H17.3752V16.6951H20.3752V21.1951Z" fill="black"/>
</svg>
