<svg width="21" height="20" viewBox="0 0 21 20" fill="none" xmlns="http://www.w3.org/2000/svg">
<path d="M12.9164 7.77778H8.40045V12.2222H12.9164V7.77778ZM15.1744 7.77778V12.2222H18.5613V7.77778H15.1744ZM12.9164 17.7778V14.4444H8.40045V17.7778H12.9164ZM15.1744 17.7778H18.5613V14.4444H15.1744V17.7778ZM12.9164 2.22222H8.40045V5.55556H12.9164V2.22222ZM15.1744 2.22222V5.55556H18.5613V2.22222H15.1744ZM6.14248 7.77778H2.75553V12.2222H6.14248V7.77778ZM6.14248 17.7778V14.4444H2.75553V17.7778H6.14248ZM6.14248 2.22222H2.75553V5.55556H6.14248V2.22222ZM1.62654 0H19.6903C19.9897 0 20.2769 0.117063 20.4886 0.325437C20.7003 0.533811 20.8193 0.816426 20.8193 1.11111V18.8889C20.8193 19.1836 20.7003 19.4662 20.4886 19.6746C20.2769 19.8829 19.9897 20 19.6903 20H1.62654C1.32712 20 1.03996 19.8829 0.82823 19.6746C0.616505 19.4662 0.497559 19.1836 0.497559 18.8889V1.11111C0.497559 0.816426 0.616505 0.533811 0.82823 0.325437C1.03996 0.117063 1.32712 0 1.62654 0Z" fill="#7C858C"/>
</svg>
