<svg width="20" height="23" viewBox="0 0 20 23" fill="none" xmlns="http://www.w3.org/2000/svg">
<path d="M5.61597 16.4032C5.01362 16.1632 4.21909 16.0312 3.38153 16.0312C2.54397 16.0312 1.74962 16.1632 1.14709 16.4032C0.736767 16.5665 0.0455322 16.9384 0.0455322 17.5816V19.0361V19.0482V20.5098C0.0455322 21.153 0.734246 21.5227 1.14473 21.6882C1.74709 21.9283 2.54162 22.0602 3.37917 22.0602C4.21673 22.0602 5.01109 21.9283 5.61362 21.6882C6.02394 21.525 6.71518 21.153 6.71518 20.5098V19.0482V19.0361V17.5816C6.71518 16.9384 6.02646 16.5688 5.61362 16.4032H5.61597ZM5.98311 19.0361C5.98311 19.1513 5.78389 19.3577 5.34475 19.533C4.82626 19.7394 4.12799 19.8546 3.38151 19.8546C2.63519 19.8546 1.93675 19.7418 1.41826 19.533C0.979149 19.3577 0.779907 19.1538 0.779907 19.0361V18.585C0.909481 18.6593 1.03906 18.7169 1.14704 18.7602C1.74939 19.0003 2.54392 19.1322 3.38148 19.1322C4.21904 19.1322 5.01339 19.0003 5.61592 18.7602C5.7239 18.7171 5.85348 18.6595 5.98305 18.585L5.98311 19.0361ZM1.41839 17.085C1.93688 16.8785 2.63515 16.7634 3.38164 16.7634C4.12795 16.7634 4.82639 16.8762 5.34488 17.085C5.78399 17.2602 5.98323 17.4642 5.98323 17.5819C5.98323 17.6994 5.78402 17.9034 5.34488 18.0787C4.82639 18.2852 4.12812 18.4003 3.38164 18.4003C2.63532 18.4003 1.93688 18.2875 1.41839 18.0787C0.979278 17.9035 0.780035 17.6996 0.780035 17.5819C0.780035 17.4643 0.979252 17.2603 1.41839 17.085ZM5.34483 21.0042C4.82635 21.2106 4.12808 21.3258 3.38159 21.3258C2.63528 21.3258 1.93684 21.213 1.41835 21.0042C0.979235 20.8289 0.779992 20.625 0.779992 20.5073V20.0369C0.909567 20.1112 1.03914 20.1688 1.14712 20.2122C1.74948 20.4522 2.54401 20.5841 3.38157 20.5841C4.21912 20.5841 5.01348 20.4522 5.61601 20.2122C5.72399 20.169 5.85357 20.1114 5.98314 20.0369V20.5073C5.98314 20.6225 5.78392 20.8289 5.34478 21.0042H5.34483Z" fill="black"/>
<path d="M18.06 0.940127H8.41668C7.37272 0.940127 6.52308 1.78973 6.52308 2.83373V10.6192C6.29272 10.6744 6.07676 10.7392 5.87988 10.8184C5.46955 10.9816 4.77832 11.3536 4.77832 11.9968V13.4513V13.4633V14.925V14.937V15.6257C4.77832 15.8273 4.94155 15.9929 5.14545 15.9929C5.25343 15.9929 5.34952 15.9448 5.41666 15.8728C5.57754 15.9736 5.74311 16.0504 5.87754 16.1057C6.4799 16.3458 7.27443 16.4777 8.11198 16.4777C8.94954 16.4777 9.7439 16.3458 10.3464 16.1057C10.4544 16.0625 10.584 16.0049 10.7136 15.9304V16.4009C10.7136 16.516 10.5143 16.7224 10.0752 16.8977C9.55672 17.1042 8.85844 17.2193 8.11196 17.2193C7.86469 17.2193 7.62227 17.2073 7.38724 17.181C7.18568 17.1594 7.00572 17.3057 6.98412 17.5074C6.96253 17.709 7.10884 17.889 7.31057 17.9106C7.57224 17.9394 7.84093 17.9514 8.11466 17.9514C8.95222 17.9514 9.74657 17.8195 10.3491 17.5794C10.4571 17.5362 10.5867 17.4786 10.7162 17.4042V17.8746C10.7162 17.9898 10.517 18.1962 10.0779 18.3715C9.55939 18.5779 8.86112 18.6931 8.11463 18.6931C7.86737 18.6931 7.62495 18.681 7.38992 18.6547C7.18836 18.6331 7.00839 18.7795 6.9868 18.9812C6.9652 19.1828 7.11152 19.3627 7.31325 19.3843C7.57491 19.4131 7.8436 19.4252 8.11733 19.4252C8.95489 19.4252 9.74925 19.2932 10.3518 19.0532C10.4261 19.022 10.5127 18.986 10.599 18.9429H18.0609C19.1049 18.9429 19.9545 18.0933 19.9545 17.0493L19.9537 2.83354C19.9537 1.78958 19.1041 0.939941 18.0601 0.939941L18.06 0.940127ZM6.15125 11.5001C6.38412 11.4065 6.65045 11.3346 6.94325 11.2793C6.95279 11.2793 6.9625 11.277 6.97204 11.2745C7.32478 11.212 7.71369 11.1785 8.1168 11.1785C8.86311 11.1785 9.56156 11.2914 10.08 11.5001C10.5192 11.6754 10.7184 11.8793 10.7184 11.997C10.7184 12.1145 10.5192 12.3186 10.08 12.4939C9.56156 12.7003 8.86329 12.8155 8.1168 12.8155C7.37049 12.8155 6.67204 12.7027 6.15356 12.4939C5.71444 12.3186 5.5152 12.1147 5.5152 11.997C5.5152 11.8795 5.71442 11.6754 6.15356 11.5001H6.15125ZM5.51289 12.9978C5.64247 13.0721 5.77204 13.1297 5.88002 13.173C6.48238 13.4131 7.27691 13.545 8.11447 13.545C8.95202 13.545 9.74638 13.4131 10.3489 13.173C10.4569 13.1299 10.5865 13.0723 10.716 12.9978V13.4489C10.716 13.5641 10.5168 13.7705 10.0777 13.9458C9.5592 14.1522 8.86093 14.2674 8.11444 14.2674C7.36813 14.2674 6.66968 14.1546 6.1512 13.9458C5.71208 13.7705 5.51284 13.5666 5.51284 13.4489L5.51289 12.9978ZM10.0776 15.4194C9.55912 15.6258 8.86085 15.741 8.11436 15.741C7.36805 15.741 6.66961 15.6281 6.15112 15.4194C5.71201 15.2441 5.51276 15.0402 5.51276 14.9225V14.452C5.64234 14.5264 5.77192 14.584 5.87989 14.6273C6.48225 14.8674 7.27678 14.9993 8.11434 14.9993C8.9519 14.9993 9.74625 14.8674 10.3488 14.6273C10.4568 14.5841 10.5863 14.5265 10.7159 14.452V14.9225C10.7159 15.0377 10.5167 15.2441 10.0776 15.4194H10.0776ZM19.219 17.0441C19.219 17.6849 18.6982 18.2032 18.0599 18.2032H11.3832C11.424 18.1025 11.448 17.992 11.448 17.8721V16.4105V16.3984V14.9368V14.9247V13.4631V13.451V11.9965C11.448 11.3533 10.7592 10.9837 10.3464 10.8181C9.74404 10.5781 8.94951 10.4461 8.11195 10.4461C7.81915 10.4461 7.53119 10.4629 7.25279 10.4942L7.25263 2.8339C7.25263 2.19306 7.77343 1.67474 8.41178 1.67474H18.0551C18.6959 1.67474 19.2142 2.19554 19.2142 2.8339V17.044L19.219 17.0441Z" fill="black"/>
<path d="M17.3134 2.896H9.16282C8.76439 2.896 8.43811 3.21994 8.43811 3.62071V5.92227C8.43811 6.32071 8.76205 6.64698 9.16282 6.64698H17.3134C17.7118 6.64698 18.0381 6.32304 18.0381 5.92227V3.62071C18.0381 3.22227 17.7142 2.896 17.3134 2.896ZM17.3039 5.91275L9.17257 5.91292V3.63044H17.3039V5.91292V5.91275Z" fill="black"/>
<path d="M17.2919 7.42969H16.0824C15.6695 7.42969 15.3361 7.76568 15.3361 8.176V9.38556C15.3361 9.79839 15.6721 10.1319 16.0824 10.1319H17.2919C17.7048 10.1319 18.0382 9.79588 18.0382 9.38556V8.176C18.0382 7.76317 17.7023 7.42969 17.2919 7.42969ZM17.3063 9.38573C17.3063 9.38573 17.2991 9.40013 17.2919 9.40013H16.0824C16.0824 9.40013 16.068 9.39293 16.068 9.38573V8.17617C16.068 8.17617 16.0752 8.16178 16.0824 8.16178H17.2919C17.2919 8.16178 17.3063 8.16897 17.3063 8.17617V9.38573Z" fill="black"/>
<path d="M13.8553 7.42969H12.6457C12.2329 7.42969 11.8994 7.76568 11.8994 8.176V9.38556C11.8994 9.79839 12.2354 10.1319 12.6457 10.1319H13.8553C14.2681 10.1319 14.6016 9.79588 14.6016 9.38556V8.176C14.6016 7.76317 14.2656 7.42969 13.8553 7.42969ZM13.8697 9.38573C13.8697 9.38573 13.8625 9.40013 13.8553 9.40013H12.6457C12.6457 9.40013 12.6313 9.39293 12.6313 9.38573V8.17617C12.6313 8.17617 12.6385 8.16178 12.6457 8.16178H13.8553C13.8553 8.16178 13.8697 8.16897 13.8697 8.17617V9.38573Z" fill="black"/>
<path d="M10.4207 7.42969H9.21116C8.79832 7.42969 8.46484 7.76568 8.46484 8.176V9.38556C8.46484 9.79839 8.80084 10.1319 9.21116 10.1319H10.4207C10.8335 10.1319 11.167 9.79588 11.167 9.38556V8.176C11.167 7.76317 10.831 7.42969 10.4207 7.42969ZM10.4351 9.38573C10.4351 9.38573 10.4279 9.40013 10.4207 9.40013H9.21116C9.21116 9.40013 9.19676 9.39293 9.19676 9.38573V8.17617C9.19676 8.17617 9.20396 8.16178 9.21116 8.16178H10.4207C10.4207 8.16178 10.4351 8.16897 10.4351 8.17617V9.38573Z" fill="black"/>
<path d="M17.2919 10.917H16.0824C15.6695 10.917 15.3361 11.253 15.3361 11.6633V16.36C15.3361 16.7729 15.6721 17.1063 16.0824 17.1063H17.2919C17.7048 17.1063 18.0382 16.7703 18.0382 16.36V11.6633C18.0382 11.2505 17.7023 10.917 17.2919 10.917ZM17.3063 16.3603C17.3063 16.3603 17.2991 16.3747 17.2919 16.3747H16.0824C16.0824 16.3747 16.068 16.3675 16.068 16.3603V11.6636C16.068 11.6636 16.0752 11.6492 16.0824 11.6492H17.2919C17.2919 11.6492 17.3063 11.6564 17.3063 11.6636V16.3603Z" fill="black"/>
<path d="M13.8553 10.917H12.6457C12.2329 10.917 11.8994 11.253 11.8994 11.6633V12.8729C11.8994 13.2857 12.2354 13.6192 12.6457 13.6192H13.8553C14.2681 13.6192 14.6016 13.2832 14.6016 12.8729V11.6633C14.6016 11.2505 14.2656 10.917 13.8553 10.917ZM13.8697 12.873C13.8697 12.873 13.8625 12.8874 13.8553 12.8874H12.6457C12.6457 12.8874 12.6313 12.8802 12.6313 12.873V11.6635C12.6313 11.6635 12.6385 11.6491 12.6457 11.6491H13.8553C13.8553 11.6491 13.8697 11.6563 13.8697 11.6635V12.873Z" fill="black"/>
<path d="M13.8553 14.4038H12.6457C12.2329 14.4038 11.8994 14.7398 11.8994 15.1501V16.3597C11.8994 16.7725 12.2354 17.106 12.6457 17.106H13.8553C14.2681 17.106 14.6016 16.77 14.6016 16.3597V15.1501C14.6016 14.7373 14.2656 14.4038 13.8553 14.4038ZM13.8697 16.3599C13.8697 16.3599 13.8625 16.3742 13.8553 16.3742H12.6457C12.6457 16.3742 12.6313 16.367 12.6313 16.3599V15.1503C12.6313 15.1503 12.6385 15.1359 12.6457 15.1359H13.8553C13.8553 15.1359 13.8697 15.1431 13.8697 15.1503V16.3599Z" fill="black"/>
</svg>
