<svg width="24" height="22" viewBox="0 0 24 22" fill="none" xmlns="http://www.w3.org/2000/svg">
<path d="M13.4264 4.39153C13.8089 4.01921 14.0483 3.5004 14.0483 2.92603C14.0483 1.79653 13.1297 0.87793 12.0002 0.87793C10.8707 0.87793 9.95162 1.79653 9.95162 2.92603C9.95162 3.5004 10.1912 4.0194 10.574 4.39153C9.18401 4.76385 8.22461 5.66872 8.22461 6.7542V8.32603C8.22461 8.53747 8.39621 8.70907 8.60765 8.70907H15.3928C15.6042 8.70907 15.7758 8.53747 15.7758 8.32603V6.7542C15.7762 5.66906 14.8162 4.7637 13.4262 4.39153H13.4264ZM10.7175 2.92603C10.7175 2.21872 11.2931 1.64383 12.0002 1.64383C12.7076 1.64383 13.2824 2.21889 13.2824 2.92603C13.2824 3.63317 12.7076 4.20874 12.0002 4.20874C11.2929 4.20874 10.7175 3.63317 10.7175 2.92603ZM12.0002 4.97464C13.6316 4.97464 15.0104 5.78962 15.0104 6.75472V7.94349H8.99072V6.75472C8.99072 5.78957 10.369 4.97464 12.0005 4.97464H12.0002Z" fill="black"/>
<path d="M5.77342 17.5439C6.15596 17.1716 6.39537 16.6533 6.39537 16.0789C6.39537 14.9494 5.4763 14.0303 4.34675 14.0303C3.21772 14.0303 2.29865 14.9493 2.29865 16.0789C2.29865 16.6533 2.53822 17.1716 2.9206 17.5434C1.53057 17.9157 0.571167 18.8211 0.571167 19.9066V21.4784C0.571167 21.6899 0.742763 21.8615 0.954203 21.8615H7.73935C7.95079 21.8615 8.12238 21.6899 8.12238 21.4784V19.9066C8.12272 18.8211 7.16311 17.9157 5.7733 17.5439H5.77342ZM3.0649 16.0789C3.0649 15.3716 3.63995 14.7962 4.3471 14.7962C5.05441 14.7962 5.62981 15.3717 5.62981 16.0789C5.62981 16.7855 5.05424 17.3606 4.3471 17.3606C3.63995 17.3601 3.0649 16.7852 3.0649 16.0789ZM4.3471 18.126C5.9785 18.126 7.3573 18.9414 7.3573 19.9061V21.0948H1.33758V19.9061C1.33758 18.9416 2.7157 18.126 4.34714 18.126H4.3471Z" fill="black"/>
<path d="M21.079 17.5434C21.4615 17.1711 21.7009 16.6533 21.7009 16.0789C21.7009 14.9494 20.7823 14.0303 19.6528 14.0303C18.5233 14.0303 17.6047 14.9493 17.6047 16.0789C17.6047 16.6533 17.8443 17.1716 18.2267 17.5434C16.8366 17.9157 15.8767 18.8211 15.8767 19.9066V21.4784C15.8767 21.6899 16.0483 21.8615 16.2597 21.8615H23.0457C23.2572 21.8615 23.4288 21.6899 23.4288 21.4784V19.9066C23.4291 18.8211 22.469 17.9157 21.0792 17.5434H21.079ZM18.3709 16.0789C18.3709 15.3716 18.946 14.7962 19.6531 14.7962C20.3604 14.7962 20.9353 15.3717 20.9353 16.0789C20.9353 16.7855 20.3603 17.3606 19.6531 17.3606C18.946 17.3606 18.3709 16.7852 18.3709 16.0789ZM19.6526 18.126C21.284 18.126 22.6628 18.9414 22.6628 19.9061V21.0948H16.6431V19.9061C16.6431 18.9416 18.0212 18.126 19.6526 18.126H19.6526Z" fill="black"/>
<path d="M15.1947 14.8586L12.3826 13.484V10.8987C12.3826 10.6872 12.211 10.5156 11.9995 10.5156C11.7881 10.5156 11.6165 10.6872 11.6165 10.8987V13.484L8.80549 14.8586C8.61548 14.9515 8.53696 15.1808 8.62987 15.3707C8.69634 15.5069 8.83261 15.5856 8.97407 15.5856C9.03082 15.5856 9.0879 15.5734 9.14215 15.5468L11.9997 14.1497L14.8587 15.5468C14.9123 15.5734 14.9701 15.5856 15.0261 15.5856C15.1681 15.5856 15.3044 15.5069 15.3708 15.3707C15.4634 15.1808 15.3847 14.9515 15.1947 14.8586H15.1947Z" fill="black"/>
</svg>
