<svg width="23" height="20" viewBox="0 0 23 20" fill="none" xmlns="http://www.w3.org/2000/svg">
<path d="M20.8021 11.242V18H21.8181V20H1.49841V18H2.51439V11.242C1.88892 10.8311 1.3762 10.2745 1.02173 9.62176C0.667256 8.96899 0.482008 8.24017 0.482423 7.5C0.482423 6.673 0.710003 5.876 1.12554 5.197L3.88089 0.5C3.97005 0.347985 4.09831 0.221749 4.25275 0.133981C4.40719 0.0462129 4.58239 4.45922e-06 4.76073 0H18.5568C18.7351 4.45922e-06 18.9103 0.0462129 19.0647 0.133981C19.2192 0.221749 19.3474 0.347985 19.4366 0.5L22.1818 5.182C22.7879 6.17287 22.9827 7.35553 22.7257 8.48414C22.4688 9.61275 21.7798 10.6005 20.8021 11.242ZM18.7701 11.972C18.0716 12.0491 17.3643 11.9665 16.7035 11.7307C16.0427 11.4948 15.4461 11.1119 14.9602 10.612C14.5337 11.0511 14.0212 11.4005 13.4537 11.6393C12.8862 11.878 12.2754 12.001 11.6582 12.001C11.0412 12.0013 10.4305 11.8786 9.86302 11.6402C9.29552 11.4018 8.78296 11.0527 8.35629 10.614C7.87027 11.1138 7.27363 11.4964 6.61281 11.7321C5.952 11.9678 5.24483 12.0503 4.54635 11.973V18H18.7701V11.973V11.972ZM5.34796 2L2.87608 6.213C2.63588 6.79714 2.62867 7.44903 2.85589 8.03818C3.08312 8.62733 3.52801 9.11029 4.10154 9.39039C4.67506 9.6705 5.3349 9.72708 5.949 9.54882C6.5631 9.37055 7.08614 8.9706 7.41346 8.429C7.75381 7.592 8.95775 7.592 9.29912 8.429C9.48738 8.89342 9.8128 9.2916 10.2333 9.5721C10.6539 9.85261 11.1502 10.0025 11.6582 10.0025C12.1662 10.0025 12.6626 9.85261 13.0831 9.5721C13.5037 9.2916 13.8291 8.89342 14.0173 8.429C14.3577 7.592 15.5616 7.592 15.903 8.429C16.0349 8.74845 16.2324 9.0376 16.4833 9.27828C16.7341 9.51895 17.0329 9.70595 17.3607 9.82752C17.6885 9.94909 18.0383 10.0026 18.3882 9.98468C18.738 9.96677 19.0803 9.87782 19.3935 9.72343C19.7068 9.56903 19.9842 9.35253 20.2083 9.08753C20.4324 8.82253 20.5984 8.51477 20.6959 8.18357C20.7933 7.85238 20.8201 7.50493 20.7746 7.16305C20.7291 6.82118 20.6122 6.49227 20.4312 6.197L17.9675 2H5.34898H5.34796Z" fill="#7C858C"/>
</svg>
