<svg width="29" height="30" viewBox="0 0 29 30" fill="none" xmlns="http://www.w3.org/2000/svg">
<path d="M1.52632 30C1.12151 30 0.733288 29.842 0.447048 29.5607C0.160808 29.2794 0 28.8978 0 28.5V1.5C0 1.10218 0.160808 0.720644 0.447048 0.43934C0.733288 0.158035 1.12151 0 1.52632 0H22.8947C23.2995 0 23.6878 0.158035 23.974 0.43934C24.2602 0.720644 24.4211 1.10218 24.4211 1.5V6H21.3684V3H3.05263V27H21.3684V24H24.4211V28.5C24.4211 28.8978 24.2602 29.2794 23.974 29.5607C23.6878 29.842 23.2995 30 22.8947 30H1.52632ZM21.3684 21V16.5H10.6842V13.5H21.3684V9L29 15L21.3684 21Z" fill="white"/>
</svg>
