<svg width="22" height="18" viewBox="0 0 22 18" fill="none" xmlns="http://www.w3.org/2000/svg">
<path d="M3.70675 15.6678L3.69971 15.6675C3.50418 16.4821 2.77109 17.088 1.89654 17.088C0.872343 17.088 0.0421143 16.2576 0.0421143 15.2336C0.0421143 14.2097 0.872471 13.3791 1.89654 13.3791C2.75651 13.3791 3.47973 13.9651 3.68951 14.7591L3.70676 14.7587H13.3925C14.8305 14.7587 16.0094 13.5798 16.0094 12.1418C16.0094 10.8092 14.9172 9.71652 13.5846 9.71652H6.58607C4.7514 9.71652 3.25226 8.2172 3.25226 6.3827C3.25226 4.44157 4.83711 2.85603 6.77824 2.85603H15.1315L13.6668 1.72987C13.1954 1.36626 13.7495 0.648417 14.2208 1.01219C14.6313 1.32776 16.6533 2.78356 16.8375 3.03702C16.9294 3.16207 16.9449 3.32764 16.8894 3.47279C16.7797 3.75705 14.6117 5.23563 14.2119 5.52826C13.731 5.88083 13.1946 5.14924 13.6755 4.79669L15.0855 3.76546H6.77802C5.33995 3.76546 4.16108 4.94437 4.16108 6.3824C4.16108 7.715 5.25325 8.80769 6.58585 8.80769H13.5844C15.4192 8.80769 16.9182 10.307 16.9182 12.1415C16.9182 14.0826 15.3334 15.6682 13.3923 15.6682H3.70654L3.70675 15.6678ZM19.6487 0.95753C20.9217 0.95753 21.9578 1.9933 21.9578 3.26629C21.9578 4.53962 20.9217 5.57539 19.6487 5.57539C18.3758 5.57539 17.34 4.53962 17.34 3.26629C17.34 1.9933 18.3758 0.95753 19.6487 0.95753ZM19.6487 1.86657C18.874 1.86657 18.249 2.49186 18.249 3.26629C18.249 4.04106 18.8741 4.66634 19.6487 4.66634C20.4235 4.66634 21.0485 4.04106 21.0485 3.26629C21.0485 2.49186 20.4233 1.86657 19.6487 1.86657Z" fill="black"/>
</svg>
