<svg width="24" height="23" viewBox="0 0 24 23" fill="none" xmlns="http://www.w3.org/2000/svg">
<path d="M8.37732 0.185547C7.07219 0.185547 6.01045 1.24725 6.01045 2.55242V2.66676H4.49271C4.3032 2.66676 4.14985 2.82028 4.14985 3.00962V4.24262H1.02865C0.839138 4.24262 0.685791 4.39613 0.685791 4.58548V22.4723C0.685791 22.6617 0.839138 22.8152 1.02865 22.8152H15.7269C15.9164 22.8152 16.0698 22.6617 16.0698 22.4723V4.58548C16.0698 4.39613 15.9164 4.24262 15.7269 4.24262H12.6044V3.00962C12.6044 2.82028 12.4511 2.66676 12.2615 2.66676H10.7438V2.55242C10.7438 1.24729 9.68211 0.185547 8.37728 0.185547H8.37732ZM15.384 4.92812V22.1293H1.37146V4.92812H4.14981V6.20093C4.14981 6.39028 4.30315 6.54379 4.49266 6.54379H12.2614C12.4509 6.54379 12.6042 6.39028 12.6042 6.20093V4.92812H15.384ZM11.9186 3.35226V4.5802C11.9186 4.58205 11.9176 4.58338 11.9176 4.58523C11.9176 4.58707 11.9186 4.58841 11.9186 4.59025V5.85805H4.83565V4.58691C4.83565 4.58624 4.83598 4.5859 4.83598 4.58523C4.83598 4.58456 4.83565 4.58423 4.83565 4.58356V3.35227H6.35339C6.5429 3.35227 6.69625 3.19876 6.69625 3.00942V2.55222C6.69625 1.62526 7.45028 0.871058 8.3774 0.871058C9.30419 0.871058 10.0582 1.62526 10.0582 2.55222V3.00942C10.0582 3.19876 10.2116 3.35227 10.4011 3.35227L11.9186 3.35226Z" fill="black"/>
<path d="M8.37772 1.44531C7.77138 1.44531 7.27783 1.93886 7.27783 2.54537C7.27783 3.15188 7.77138 3.64543 8.37772 3.64543C8.9844 3.64543 9.47795 3.15188 9.47795 2.54537C9.47795 1.93886 8.9844 1.44531 8.37772 1.44531ZM8.37772 2.95971C8.14937 2.95971 7.96354 2.77389 7.96354 2.54537C7.96354 2.31685 8.14937 2.13103 8.37772 2.13103C8.6064 2.13103 8.79223 2.31685 8.79223 2.54537C8.79223 2.77389 8.6064 2.95971 8.37772 2.95971Z" fill="black"/>
<path d="M8.80505 12.6704H10.1504C10.3399 12.6704 10.4932 12.5169 10.4932 12.3275V9.42879C10.4932 9.23945 10.3399 9.08594 10.1504 9.08594H6.77405C6.58454 9.08594 6.43119 9.23945 6.43119 9.42879V12.3275C6.43119 12.5169 6.58454 12.6704 6.77405 12.6704H8.11937V14.1759H3.99506C3.80555 14.1759 3.6522 14.3294 3.6522 14.5188V16.3864C2.98072 16.5428 2.47766 17.1429 2.47766 17.8613C2.47766 18.698 3.15836 19.3787 3.99506 19.3787C4.83176 19.3787 5.51246 18.698 5.51246 17.8613C5.51246 17.1429 5.0094 16.5427 4.33792 16.3864V14.8616H8.11937V16.3862C7.44772 16.5424 6.94449 17.1427 6.94449 17.8613C6.94449 18.698 7.62519 19.3787 8.46189 19.3787C9.29859 19.3787 9.97929 18.698 9.97929 17.8613C9.97929 17.1431 9.4764 16.5429 8.80509 16.3866V14.8616H12.4175V16.3864C11.746 16.5428 11.2429 17.1429 11.2429 17.8613C11.2429 18.698 11.9236 19.3787 12.7603 19.3787C13.597 19.3787 14.2777 18.698 14.2777 17.8613C14.2777 17.1429 13.7747 16.5427 13.1032 16.3864V14.5188C13.1032 14.3294 12.9498 14.1759 12.7603 14.1759H8.80509L8.80505 12.6704ZM7.11686 9.77165H9.80747V11.9847H7.11686V9.77165ZM4.82666 17.8614C4.82666 18.3199 4.45367 18.6931 3.99498 18.6931C3.53628 18.6931 3.16329 18.3199 3.16329 17.8614C3.16329 17.4028 3.53628 17.0297 3.99498 17.0297C4.45367 17.0297 4.82666 17.4028 4.82666 17.8614ZM13.5918 17.8614C13.5918 18.3199 13.2188 18.6931 12.7601 18.6931C12.3014 18.6931 11.9284 18.3199 11.9284 17.8614C11.9284 17.4028 12.3014 17.0297 12.7601 17.0297C13.2188 17.0297 13.5918 17.4028 13.5918 17.8614ZM9.29323 17.8614C9.29323 18.3199 8.92024 18.6931 8.46155 18.6931C8.00285 18.6931 7.62986 18.3199 7.62986 17.8614C7.62986 17.4028 8.00285 17.0297 8.46155 17.0297C8.92025 17.0297 9.29323 17.4028 9.29323 17.8614Z" fill="black"/>
<path d="M18.0241 16.801C18.0241 16.8012 18.0242 16.8013 18.0242 16.8015L20.3372 22.5988C20.3891 22.729 20.5153 22.8146 20.6556 22.8146C20.7959 22.8146 20.9221 22.729 20.974 22.5988L22.2592 19.3775C22.2594 19.377 22.2599 19.3766 22.2601 19.3761C22.2602 19.3758 22.2601 19.3753 22.2602 19.375L23.287 16.8015C23.2871 16.8014 23.2871 16.801 23.2873 16.8008L23.2896 16.7948C23.3044 16.758 23.3099 16.7195 23.3114 16.681C23.3117 16.6763 23.3143 16.6724 23.3143 16.6678V1.4659C23.3143 0.759918 22.7401 0.185547 22.0339 0.185547H19.2777C18.5715 0.185547 17.9973 0.759918 17.9973 1.4659V16.6678C17.9973 16.6724 17.9998 16.6763 18 16.681C18.0015 16.7195 18.007 16.758 18.0218 16.7948L18.0241 16.801ZM18.683 16.3251V7.1275H20.3129V16.3251H18.683ZM20.9986 7.1275H22.6285V16.3251H20.9986V7.1275ZM22.6285 6.44179H18.683V5.46996H22.6285V6.44179ZM20.6558 21.5464L19.8286 19.4731C20.369 19.3345 20.9422 19.3345 21.483 19.473L20.6558 21.5464ZM21.7392 18.8308C21.0336 18.6331 20.2776 18.6333 19.5724 18.831L18.846 17.0104H22.4655L21.7392 18.8308ZM18.683 1.46594C18.683 1.13799 18.9499 0.8713 19.2777 0.8713H22.0339C22.3617 0.8713 22.6285 1.13799 22.6285 1.46594V4.78437H18.683V1.46594Z" fill="black"/>
</svg>
