<svg width="21" height="20" viewBox="0 0 21 20" fill="none" xmlns="http://www.w3.org/2000/svg">
<path d="M2.75687 8.88889H18.5626V2.22222H2.75687V8.88889ZM20.8206 1.11111V18.8889C20.8206 19.1836 20.7017 19.4662 20.4899 19.6746C20.2782 19.8829 19.9911 20 19.6916 20H1.62789C1.32846 20 1.0413 19.8829 0.829573 19.6746C0.617848 19.4662 0.498901 19.1836 0.498901 18.8889V1.11111C0.498901 0.816426 0.617848 0.533811 0.829573 0.325437C1.0413 0.117063 1.32846 0 1.62789 0H19.6916C19.9911 0 20.2782 0.117063 20.4899 0.325437C20.7017 0.533811 20.8206 0.816426 20.8206 1.11111ZM18.5626 11.1111H2.75687V17.7778H18.5626V11.1111ZM5.01484 13.3333H8.40179V15.5556H5.01484V13.3333ZM5.01484 4.44444H8.40179V6.66667H5.01484V4.44444Z" fill="#7C858C"/>
</svg>
