<svg width="24" height="23" viewBox="0 0 24 23" fill="none" xmlns="http://www.w3.org/2000/svg">
<path d="M19.1573 12.8898C17.7276 12.8898 16.462 13.6058 15.6996 14.6975L12.7118 12.9725L17.8465 10.016C18.168 10.3775 18.6362 10.6058 19.1574 10.6058C20.1248 10.6058 20.9118 9.81886 20.9118 8.85136C20.9118 7.88391 20.1249 7.09688 19.1574 7.09688C18.1899 7.09688 17.4029 7.88386 17.4029 8.85136C17.4029 9.04305 17.4342 9.22753 17.4914 9.40062L12.3554 12.3574V8.54279C14.5137 8.36182 16.2144 6.54758 16.2144 4.34348C16.2144 2.01964 14.3239 0.128906 11.9998 0.128906C9.67583 0.128906 7.78527 2.01946 7.78527 4.34348C7.78527 6.54779 9.48632 8.36168 11.6443 8.54279V12.3572L6.50912 9.40045C6.56637 9.22751 6.59768 9.04303 6.59768 8.85119C6.59768 7.88373 5.81069 7.09671 4.84319 7.09671C3.87573 7.09671 3.0887 7.88369 3.0887 8.85119C3.0887 9.81865 3.87569 10.6057 4.84319 10.6057C5.36399 10.6057 5.83225 10.3775 6.15402 10.0159L11.2887 12.9723L8.30095 14.6973C7.53873 13.6053 6.27295 12.8896 4.84323 12.8896C2.51939 12.8896 0.628662 14.7802 0.628662 17.1042C0.628662 19.4282 2.51922 21.3188 4.84323 21.3188C7.16708 21.3186 9.05746 19.4282 9.05746 17.1042C9.05746 16.464 8.91366 15.8565 8.65701 15.3124L11.6445 13.5874V19.3988C10.8468 19.5635 10.2453 20.2713 10.2453 21.1171C10.2453 22.0846 11.0322 22.8716 11.9997 22.8716C12.9672 22.8716 13.7542 22.0846 13.7542 21.1171C13.7542 20.2714 13.1527 19.5635 12.355 19.3988L12.3552 13.5874L15.3426 15.3124C15.0862 15.8563 14.9422 16.4636 14.9422 17.1042C14.9422 19.428 16.8327 21.3188 19.1568 21.3188C21.4808 21.3188 23.3713 19.4282 23.3713 17.1042C23.3712 14.7802 21.4809 12.8896 19.1571 12.8896L19.1573 12.8898ZM19.1573 7.80736C19.7329 7.80736 20.2011 8.27562 20.2011 8.85115C20.2011 9.42672 19.7328 9.89493 19.1573 9.89493C18.5817 9.89493 18.1135 9.42668 18.1135 8.85115C18.1135 8.27558 18.5818 7.80736 19.1573 7.80736ZM4.84346 9.89515C4.26788 9.89515 3.79967 9.42689 3.79967 8.85136C3.79967 8.27579 4.26793 7.80758 4.84346 7.80758C5.41903 7.80758 5.88724 8.27583 5.88724 8.85136C5.88724 9.42693 5.41898 9.89515 4.84346 9.89515ZM2.5434 19.7437C2.74546 18.642 3.7044 17.8314 4.84346 17.8314C5.98251 17.8314 6.94144 18.6418 7.14351 19.7437C6.52744 20.2813 5.72318 20.6077 4.84346 20.6077C3.96373 20.6077 3.15947 20.2811 2.5434 19.7437ZM4.84346 17.1207C4.28798 17.1207 3.83614 16.6691 3.83614 16.1134C3.83614 15.5581 4.28781 15.1061 4.84346 15.1061C5.39876 15.1061 5.85077 15.5578 5.85077 16.1134C5.8506 16.6689 5.39893 17.1207 4.84346 17.1207ZM7.70768 19.1184C7.41522 18.3177 6.80066 17.6827 6.02589 17.3581C6.35535 17.0449 6.56143 16.6031 6.56143 16.1136C6.56143 15.1664 5.79098 14.3956 4.84346 14.3956C3.89593 14.3956 3.12548 15.1661 3.12548 16.1136C3.12548 16.6028 3.33157 17.0449 3.66103 17.3581C2.88626 17.6826 2.27186 18.3176 1.97923 19.1184C1.57694 18.5482 1.33971 17.8535 1.33971 17.104C1.33971 15.1721 2.91154 13.6002 4.84346 13.6002C6.77537 13.6002 8.3472 15.1721 8.3472 17.104C8.3472 17.8535 8.10998 18.5482 7.70768 19.1184ZM12.0003 4.36015C11.4448 4.36015 10.9929 3.90848 10.9929 3.35283C10.9929 2.79736 11.4446 2.34552 12.0003 2.34552C12.5557 2.34552 13.0076 2.79719 13.0076 3.35283C13.0076 3.90831 12.5557 4.36015 12.0003 4.36015ZM14.3003 6.98313C13.6842 7.52069 12.88 7.84713 12.0003 7.84713C11.1205 7.84713 10.3163 7.52068 9.7002 6.98313C9.90226 5.88141 10.8612 5.07081 12.0003 5.07081C13.1393 5.07081 14.0982 5.88141 14.3003 6.98313ZM12.0003 0.839563C13.9322 0.839563 15.504 2.41139 15.504 4.34331C15.504 5.09279 15.2668 5.78721 14.8645 6.35776C14.572 5.55702 13.9578 4.92205 13.1827 4.59745C13.5121 4.28422 13.7182 3.84244 13.7182 3.35292C13.7182 2.40569 12.9475 1.63495 12.0003 1.63495C11.053 1.63495 10.2823 2.40569 10.2823 3.35292C10.2823 3.84244 10.4884 4.28421 10.8178 4.59745C10.0431 4.92189 9.42866 5.55689 9.13603 6.35776C8.73374 5.78755 8.49634 5.09279 8.49634 4.34331C8.49651 2.41122 10.0683 0.839563 12.0003 0.839563ZM13.044 21.117C13.044 21.6926 12.5758 22.1608 12.0003 22.1608C11.4247 22.1608 10.9565 21.6925 10.9565 21.117C10.9565 20.5415 11.4247 20.0732 12.0003 20.0732C12.5758 20.0732 13.044 20.5415 13.044 21.117ZM19.1572 13.6003C21.0891 13.6003 22.6609 15.1721 22.6609 17.104C22.6609 17.8535 22.4237 18.5479 22.0214 19.1185C21.7291 18.3177 21.1147 17.6828 20.3396 17.3582C20.6691 17.0449 20.8752 16.6031 20.8752 16.1136C20.8752 15.1664 20.1044 14.3957 19.1572 14.3957C18.21 14.3957 17.4392 15.1661 17.4392 16.1136C17.4392 16.6028 17.6453 17.0449 17.9748 17.3582C17.2 17.6826 16.5856 18.3176 16.293 19.1186C15.8907 18.5484 15.6533 17.8537 15.6533 17.1042C15.6534 15.1723 17.2253 13.6003 19.1572 13.6003ZM19.1572 17.1208C18.6017 17.1208 18.1499 16.6691 18.1499 16.1135C18.1499 15.5582 18.6015 15.1061 19.1572 15.1061C19.7127 15.1061 20.1645 15.5578 20.1645 16.1135C20.1645 16.6689 19.7127 17.1208 19.1572 17.1208ZM16.8571 19.7438C17.0592 18.642 18.0181 17.8314 19.1572 17.8314C20.2962 17.8314 21.2552 18.6419 21.4572 19.7438C20.8412 20.2813 20.0369 20.6078 19.1572 20.6078C18.2775 20.6078 17.4732 20.2811 16.8571 19.7438Z" fill="black"/>
</svg>
