<svg width="46" height="46" viewBox="0 0 46 46" fill="none" xmlns="http://www.w3.org/2000/svg">
<path fill-rule="evenodd" clip-rule="evenodd" d="M46 23C46 10.2977 35.7023 -4.50128e-07 23 -1.00536e-06C10.2977 -1.5606e-06 -4.50128e-07 10.2977 -1.00536e-06 23C-1.5606e-06 35.7023 10.2977 46 23 46C35.7023 46 46 35.7023 46 23ZM27.6146 16.1146C27.9955 15.7203 28.2063 15.1921 28.2015 14.6439C28.1967 14.0957 27.9768 13.5712 27.5892 13.1836C27.2015 12.7959 26.6771 12.576 26.1288 12.5712C25.5806 12.5665 25.0524 12.7772 24.6581 13.1581L16.2945 21.5217C15.9025 21.9138 15.6823 22.4456 15.6823 23C15.6823 23.5544 15.9025 24.0862 16.2945 24.4783L24.6581 32.8419C25.0524 33.2228 25.5806 33.4335 26.1288 33.4288C26.6771 33.424 27.2015 33.2041 27.5892 32.8164C27.9768 32.4288 28.1967 31.9043 28.2015 31.3561C28.2063 30.8079 27.9955 30.2797 27.6146 29.8854L20.7293 23L27.6146 16.1146Z" fill="#7E76CA"/>
</svg>
