<svg width="187" height="13" viewBox="0 0 187 13" fill="none" xmlns="http://www.w3.org/2000/svg">
<path d="M4.616 12.16C3.72 12.16 2.94667 12 2.296 11.68C1.656 11.36 1.16 10.8747 0.808 10.224C0.466667 9.56267 0.296 8.71467 0.296 7.68V1.184C0.296 1.06667 0.328 0.976 0.392 0.912C0.456 0.837333 0.546667 0.799999 0.664 0.799999H1.48C1.59733 0.799999 1.688 0.837333 1.752 0.912C1.82667 0.976 1.864 1.06667 1.864 1.184V7.712C1.864 8.75733 2.10933 9.53067 2.6 10.032C3.09067 10.5333 3.76267 10.784 4.616 10.784C5.45867 10.784 6.12533 10.5333 6.616 10.032C7.11733 9.53067 7.368 8.75733 7.368 7.712V1.184C7.368 1.06667 7.4 0.976 7.464 0.912C7.53867 0.837333 7.62933 0.799999 7.736 0.799999H8.568C8.67467 0.799999 8.76 0.837333 8.824 0.912C8.89867 0.976 8.936 1.06667 8.936 1.184V7.68C8.936 8.71467 8.76 9.56267 8.408 10.224C8.06667 10.8747 7.576 11.36 6.936 11.68C6.296 12 5.52267 12.16 4.616 12.16ZM11.9788 12C11.8614 12 11.7708 11.968 11.7068 11.904C11.6428 11.8293 11.6108 11.7387 11.6108 11.632V1.168C11.6108 1.06133 11.6428 0.976 11.7068 0.912C11.7708 0.837333 11.8614 0.799999 11.9788 0.799999H12.8268C12.9334 0.799999 13.0188 0.837333 13.0828 0.912C13.1468 0.976 13.1788 1.06133 13.1788 1.168V10.608H18.5068C18.6241 10.608 18.7148 10.6453 18.7788 10.72C18.8428 10.784 18.8748 10.8747 18.8748 10.992V11.632C18.8748 11.7387 18.8428 11.8293 18.7788 11.904C18.7148 11.968 18.6241 12 18.5068 12H11.9788ZM21.5361 12C21.4295 12 21.3388 11.968 21.2641 11.904C21.2001 11.8293 21.1681 11.7387 21.1681 11.632V2.224H18.0961C17.9895 2.224 17.8988 2.192 17.8241 2.128C17.7601 2.05333 17.7281 1.96267 17.7281 1.856V1.184C17.7281 1.06667 17.7601 0.976 17.8241 0.912C17.8988 0.837333 17.9895 0.799999 18.0961 0.799999H25.8081C25.9255 0.799999 26.0161 0.837333 26.0801 0.912C26.1548 0.976 26.1921 1.06667 26.1921 1.184V1.856C26.1921 1.96267 26.1548 2.05333 26.0801 2.128C26.0161 2.192 25.9255 2.224 25.8081 2.224H22.7521V11.632C22.7521 11.7387 22.7148 11.8293 22.6401 11.904C22.5761 11.968 22.4855 12 22.3681 12H21.5361ZM28.3538 12C28.2364 12 28.1458 11.968 28.0818 11.904C28.0178 11.8293 27.9858 11.7387 27.9858 11.632V1.168C27.9858 1.06133 28.0178 0.976 28.0818 0.912C28.1458 0.837333 28.2364 0.799999 28.3538 0.799999H29.2018C29.3084 0.799999 29.3938 0.837333 29.4578 0.912C29.5324 0.976 29.5698 1.06133 29.5698 1.168V11.632C29.5698 11.7387 29.5324 11.8293 29.4578 11.904C29.3938 11.968 29.3084 12 29.2018 12H28.3538ZM32.7288 12C32.6221 12 32.5314 11.968 32.4568 11.904C32.3928 11.8293 32.3608 11.7387 32.3608 11.632V1.184C32.3608 1.06667 32.3928 0.976 32.4568 0.912C32.5314 0.837333 32.6221 0.799999 32.7288 0.799999H33.5288C33.6568 0.799999 33.7528 0.831999 33.8168 0.896C33.8808 0.96 33.9181 1.01333 33.9288 1.056L37.3208 7.52L40.7288 1.056C40.7501 1.01333 40.7874 0.96 40.8408 0.896C40.9048 0.831999 41.0008 0.799999 41.1288 0.799999H41.9128C42.0301 0.799999 42.1208 0.837333 42.1848 0.912C42.2594 0.976 42.2968 1.06667 42.2968 1.184V11.632C42.2968 11.7387 42.2594 11.8293 42.1848 11.904C42.1208 11.968 42.0301 12 41.9128 12H41.1288C41.0221 12 40.9314 11.968 40.8568 11.904C40.7928 11.8293 40.7608 11.7387 40.7608 11.632V3.76L38.0888 8.976C38.0461 9.08267 37.9821 9.168 37.8968 9.232C37.8114 9.28533 37.7048 9.312 37.5768 9.312H37.0808C36.9421 9.312 36.8301 9.28533 36.7448 9.232C36.6701 9.168 36.6061 9.08267 36.5528 8.976L33.8808 3.76V11.632C33.8808 11.7387 33.8434 11.8293 33.7688 11.904C33.7048 11.968 33.6194 12 33.5128 12H32.7288ZM44.3119 12C44.2265 12 44.1519 11.968 44.0879 11.904C44.0239 11.84 43.9919 11.7653 43.9919 11.68C43.9919 11.6267 43.9972 11.568 44.0079 11.504L47.9759 1.152C48.0185 1.04533 48.0772 0.96 48.1519 0.896C48.2265 0.831999 48.3385 0.799999 48.4879 0.799999H49.5759C49.7145 0.799999 49.8212 0.831999 49.8959 0.896C49.9812 0.96 50.0452 1.04533 50.0879 1.152L54.0399 11.504C54.0612 11.568 54.0719 11.6267 54.0719 11.68C54.0719 11.7653 54.0399 11.84 53.9759 11.904C53.9119 11.968 53.8372 12 53.7519 12H52.9359C52.8079 12 52.7119 11.968 52.6479 11.904C52.5945 11.84 52.5572 11.7813 52.5359 11.728L51.6559 9.456H46.4079L45.5279 11.728C45.5172 11.7813 45.4799 11.84 45.4159 11.904C45.3519 11.968 45.2559 12 45.1279 12H44.3119ZM46.8719 8.08H51.1919L49.0319 2.4L46.8719 8.08ZM57.4111 12C57.3045 12 57.2138 11.968 57.1391 11.904C57.0751 11.8293 57.0431 11.7387 57.0431 11.632V2.224H53.9711C53.8645 2.224 53.7738 2.192 53.6991 2.128C53.6351 2.05333 53.6031 1.96267 53.6031 1.856V1.184C53.6031 1.06667 53.6351 0.976 53.6991 0.912C53.7738 0.837333 53.8645 0.799999 53.9711 0.799999H61.6831C61.8005 0.799999 61.8911 0.837333 61.9551 0.912C62.0298 0.976 62.0671 1.06667 62.0671 1.184V1.856C62.0671 1.96267 62.0298 2.05333 61.9551 2.128C61.8911 2.192 61.8005 2.224 61.6831 2.224H58.6271V11.632C58.6271 11.7387 58.5898 11.8293 58.5151 11.904C58.4511 11.968 58.3605 12 58.2431 12H57.4111ZM64.2288 12C64.1114 12 64.0208 11.968 63.9568 11.904C63.8928 11.8293 63.8608 11.7387 63.8608 11.632V1.184C63.8608 1.06667 63.8928 0.976 63.9568 0.912C64.0208 0.837333 64.1114 0.799999 64.2288 0.799999H70.8368C70.9541 0.799999 71.0448 0.837333 71.1088 0.912C71.1728 0.976 71.2048 1.06667 71.2048 1.184V1.792C71.2048 1.90933 71.1728 2 71.1088 2.064C71.0448 2.128 70.9541 2.16 70.8368 2.16H65.3968V5.664H70.4848C70.6021 5.664 70.6928 5.70133 70.7568 5.776C70.8208 5.84 70.8528 5.93067 70.8528 6.048V6.64C70.8528 6.74667 70.8208 6.83733 70.7568 6.912C70.6928 6.976 70.6021 7.008 70.4848 7.008H65.3968V10.64H70.9648C71.0821 10.64 71.1728 10.672 71.2368 10.736C71.3008 10.8 71.3328 10.8907 71.3328 11.008V11.632C71.3328 11.7387 71.3008 11.8293 71.2368 11.904C71.1728 11.968 71.0821 12 70.9648 12H64.2288ZM77.8538 12C77.7364 12 77.6458 11.968 77.5818 11.904C77.5178 11.8293 77.4858 11.7387 77.4858 11.632V1.184C77.4858 1.06667 77.5178 0.976 77.5818 0.912C77.6458 0.837333 77.7364 0.799999 77.8538 0.799999H82.2378C83.0378 0.799999 83.6884 0.933333 84.1898 1.2C84.7018 1.456 85.0751 1.808 85.3098 2.256C85.5551 2.704 85.6778 3.20533 85.6778 3.76C85.6778 4.19733 85.6031 4.576 85.4538 4.896C85.3151 5.20533 85.1391 5.46133 84.9258 5.664C84.7124 5.856 84.5044 6.00533 84.3018 6.112C84.7178 6.31467 85.0858 6.64533 85.4058 7.104C85.7364 7.56267 85.9018 8.11733 85.9018 8.768C85.9018 9.35467 85.7684 9.89333 85.5017 10.384C85.2351 10.8747 84.8351 11.2693 84.3018 11.568C83.7791 11.856 83.1284 12 82.3498 12H77.8538ZM79.0538 10.704H82.1418C82.8351 10.704 83.3684 10.5173 83.7418 10.144C84.1151 9.77067 84.3018 9.312 84.3018 8.768C84.3018 8.20267 84.1151 7.73867 83.7418 7.376C83.3684 7.00267 82.8351 6.816 82.1418 6.816H79.0538V10.704ZM79.0538 5.536H81.9978C82.6804 5.536 83.1978 5.38133 83.5498 5.072C83.9018 4.752 84.0778 4.32 84.0778 3.776C84.0778 3.232 83.9018 2.816 83.5498 2.528C83.1978 2.24 82.6804 2.096 81.9978 2.096H79.0538V5.536ZM92.3973 12.16C91.5013 12.16 90.7279 12 90.0773 11.68C89.4373 11.36 88.9413 10.8747 88.5893 10.224C88.2479 9.56267 88.0773 8.71467 88.0773 7.68V1.184C88.0773 1.06667 88.1093 0.976 88.1733 0.912C88.2373 0.837333 88.3279 0.799999 88.4453 0.799999H89.2613C89.3786 0.799999 89.4693 0.837333 89.5333 0.912C89.6079 0.976 89.6453 1.06667 89.6453 1.184V7.712C89.6453 8.75733 89.8906 9.53067 90.3813 10.032C90.8719 10.5333 91.5439 10.784 92.3973 10.784C93.2399 10.784 93.9066 10.5333 94.3973 10.032C94.8986 9.53067 95.1493 8.75733 95.1493 7.712V1.184C95.1493 1.06667 95.1813 0.976 95.2453 0.912C95.3199 0.837333 95.4106 0.799999 95.5173 0.799999H96.3493C96.4559 0.799999 96.5413 0.837333 96.6053 0.912C96.6799 0.976 96.7173 1.06667 96.7173 1.184V7.68C96.7173 8.71467 96.5413 9.56267 96.1892 10.224C95.8479 10.8747 95.3573 11.36 94.7173 11.68C94.0773 12 93.3039 12.16 92.3973 12.16ZM102.992 12.16C102.064 12.16 101.285 12.0213 100.656 11.744C100.027 11.456 99.5413 11.088 99.2 10.64C98.8693 10.1813 98.6933 9.696 98.672 9.184C98.672 9.09867 98.704 9.024 98.768 8.96C98.8427 8.88533 98.928 8.848 99.024 8.848H99.84C99.968 8.848 100.064 8.88 100.128 8.944C100.192 9.008 100.235 9.08267 100.256 9.168C100.309 9.424 100.437 9.68 100.64 9.936C100.853 10.1813 101.147 10.3893 101.52 10.56C101.904 10.72 102.395 10.8 102.992 10.8C103.909 10.8 104.581 10.64 105.008 10.32C105.445 9.98933 105.664 9.552 105.664 9.008C105.664 8.63467 105.547 8.336 105.312 8.112C105.088 7.87733 104.741 7.66933 104.272 7.488C103.803 7.30667 103.195 7.10933 102.448 6.896C101.669 6.672 101.024 6.42667 100.512 6.16C100 5.89333 99.616 5.56267 99.36 5.168C99.1147 4.77333 98.992 4.272 98.992 3.664C98.992 3.088 99.1467 2.576 99.456 2.128C99.7653 1.66933 100.208 1.30667 100.784 1.04C101.371 0.773333 102.08 0.639999 102.912 0.639999C103.573 0.639999 104.149 0.730666 104.64 0.912C105.141 1.08267 105.557 1.31733 105.888 1.616C106.219 1.904 106.469 2.21867 106.64 2.56C106.811 2.89067 106.901 3.216 106.912 3.536C106.912 3.61067 106.885 3.68533 106.832 3.76C106.779 3.824 106.693 3.856 106.576 3.856H105.728C105.653 3.856 105.573 3.83467 105.488 3.792C105.413 3.74933 105.355 3.66933 105.312 3.552C105.248 3.11467 105.003 2.74667 104.576 2.448C104.149 2.14933 103.595 2 102.912 2C102.219 2 101.653 2.13333 101.216 2.4C100.789 2.66667 100.576 3.08267 100.576 3.648C100.576 4.01067 100.677 4.31467 100.88 4.56C101.083 4.79467 101.403 5.00267 101.84 5.184C102.277 5.36533 102.848 5.55733 103.552 5.76C104.405 5.99467 105.104 6.24533 105.648 6.512C106.192 6.768 106.592 7.09333 106.848 7.488C107.115 7.872 107.248 8.368 107.248 8.976C107.248 9.648 107.072 10.224 106.72 10.704C106.368 11.1733 105.872 11.536 105.232 11.792C104.603 12.0373 103.856 12.16 102.992 12.16ZM109.713 12C109.596 12 109.505 11.968 109.441 11.904C109.377 11.8293 109.345 11.7387 109.345 11.632V1.168C109.345 1.06133 109.377 0.976 109.441 0.912C109.505 0.837333 109.596 0.799999 109.713 0.799999H110.561C110.668 0.799999 110.753 0.837333 110.817 0.912C110.892 0.976 110.929 1.06133 110.929 1.168V11.632C110.929 11.7387 110.892 11.8293 110.817 11.904C110.753 11.968 110.668 12 110.561 12H109.713ZM114.088 12C113.971 12 113.88 11.968 113.816 11.904C113.752 11.8293 113.72 11.7387 113.72 11.632V1.184C113.72 1.06667 113.752 0.976 113.816 0.912C113.88 0.837333 113.971 0.799999 114.088 0.799999H114.824C114.952 0.799999 115.048 0.831999 115.112 0.896C115.176 0.949333 115.213 0.992 115.224 1.024L120.536 9.184V1.184C120.536 1.06667 120.568 0.976 120.632 0.912C120.696 0.837333 120.787 0.799999 120.904 0.799999H121.672C121.789 0.799999 121.88 0.837333 121.944 0.912C122.019 0.976 122.056 1.06667 122.056 1.184V11.616C122.056 11.7227 122.019 11.8133 121.944 11.888C121.88 11.9627 121.795 12 121.688 12H120.92C120.803 12 120.712 11.968 120.648 11.904C120.595 11.84 120.557 11.7973 120.536 11.776L115.24 3.696V11.632C115.24 11.7387 115.203 11.8293 115.128 11.904C115.064 11.968 114.973 12 114.856 12H114.088ZM125.198 12C125.08 12 124.99 11.968 124.926 11.904C124.862 11.8293 124.83 11.7387 124.83 11.632V1.184C124.83 1.06667 124.862 0.976 124.926 0.912C124.99 0.837333 125.08 0.799999 125.198 0.799999H131.806C131.923 0.799999 132.014 0.837333 132.078 0.912C132.142 0.976 132.174 1.06667 132.174 1.184V1.792C132.174 1.90933 132.142 2 132.078 2.064C132.014 2.128 131.923 2.16 131.806 2.16H126.366V5.664H131.454C131.571 5.664 131.662 5.70133 131.726 5.776C131.79 5.84 131.822 5.93067 131.822 6.048V6.64C131.822 6.74667 131.79 6.83733 131.726 6.912C131.662 6.976 131.571 7.008 131.454 7.008H126.366V10.64H131.934C132.051 10.64 132.142 10.672 132.206 10.736C132.27 10.8 132.302 10.8907 132.302 11.008V11.632C132.302 11.7387 132.27 11.8293 132.206 11.904C132.142 11.968 132.051 12 131.934 12H125.198ZM138.133 12.16C137.205 12.16 136.426 12.0213 135.797 11.744C135.167 11.456 134.682 11.088 134.341 10.64C134.01 10.1813 133.834 9.696 133.813 9.184C133.813 9.09867 133.845 9.024 133.909 8.96C133.983 8.88533 134.069 8.848 134.165 8.848H134.981C135.109 8.848 135.205 8.88 135.269 8.944C135.333 9.008 135.375 9.08267 135.397 9.168C135.45 9.424 135.578 9.68 135.781 9.936C135.994 10.1813 136.287 10.3893 136.661 10.56C137.045 10.72 137.535 10.8 138.133 10.8C139.05 10.8 139.722 10.64 140.149 10.32C140.586 9.98933 140.805 9.552 140.805 9.008C140.805 8.63467 140.687 8.336 140.453 8.112C140.229 7.87733 139.882 7.66933 139.413 7.488C138.943 7.30667 138.335 7.10933 137.589 6.896C136.81 6.672 136.165 6.42667 135.653 6.16C135.141 5.89333 134.757 5.56267 134.501 5.168C134.255 4.77333 134.133 4.272 134.133 3.664C134.133 3.088 134.287 2.576 134.597 2.128C134.906 1.66933 135.349 1.30667 135.925 1.04C136.511 0.773333 137.221 0.639999 138.053 0.639999C138.714 0.639999 139.29 0.730666 139.781 0.912C140.282 1.08267 140.698 1.31733 141.029 1.616C141.359 1.904 141.61 2.21867 141.781 2.56C141.951 2.89067 142.042 3.216 142.053 3.536C142.053 3.61067 142.026 3.68533 141.973 3.76C141.919 3.824 141.834 3.856 141.717 3.856H140.869C140.794 3.856 140.714 3.83467 140.629 3.792C140.554 3.74933 140.495 3.66933 140.453 3.552C140.389 3.11467 140.143 2.74667 139.717 2.448C139.29 2.14933 138.735 2 138.053 2C137.359 2 136.794 2.13333 136.357 2.4C135.93 2.66667 135.717 3.08267 135.717 3.648C135.717 4.01067 135.818 4.31467 136.021 4.56C136.223 4.79467 136.543 5.00267 136.981 5.184C137.418 5.36533 137.989 5.55733 138.693 5.76C139.546 5.99467 140.245 6.24533 140.789 6.512C141.333 6.768 141.733 7.09333 141.989 7.488C142.255 7.872 142.389 8.368 142.389 8.976C142.389 9.648 142.213 10.224 141.861 10.704C141.509 11.1733 141.013 11.536 140.373 11.792C139.743 12.0373 138.997 12.16 138.133 12.16ZM148.086 12.16C147.158 12.16 146.379 12.0213 145.75 11.744C145.12 11.456 144.635 11.088 144.294 10.64C143.963 10.1813 143.787 9.696 143.766 9.184C143.766 9.09867 143.798 9.024 143.862 8.96C143.936 8.88533 144.022 8.848 144.118 8.848H144.934C145.062 8.848 145.158 8.88 145.222 8.944C145.286 9.008 145.328 9.08267 145.35 9.168C145.403 9.424 145.531 9.68 145.734 9.936C145.947 10.1813 146.24 10.3893 146.614 10.56C146.998 10.72 147.488 10.8 148.086 10.8C149.003 10.8 149.675 10.64 150.102 10.32C150.539 9.98933 150.758 9.552 150.758 9.008C150.758 8.63467 150.64 8.336 150.406 8.112C150.182 7.87733 149.835 7.66933 149.366 7.488C148.896 7.30667 148.288 7.10933 147.542 6.896C146.763 6.672 146.118 6.42667 145.606 6.16C145.094 5.89333 144.71 5.56267 144.454 5.168C144.208 4.77333 144.086 4.272 144.086 3.664C144.086 3.088 144.24 2.576 144.55 2.128C144.859 1.66933 145.302 1.30667 145.878 1.04C146.464 0.773333 147.174 0.639999 148.006 0.639999C148.667 0.639999 149.243 0.730666 149.734 0.912C150.235 1.08267 150.651 1.31733 150.982 1.616C151.312 1.904 151.563 2.21867 151.734 2.56C151.904 2.89067 151.995 3.216 152.006 3.536C152.006 3.61067 151.979 3.68533 151.926 3.76C151.872 3.824 151.787 3.856 151.67 3.856H150.822C150.747 3.856 150.667 3.83467 150.582 3.792C150.507 3.74933 150.448 3.66933 150.406 3.552C150.342 3.11467 150.096 2.74667 149.67 2.448C149.243 2.14933 148.688 2 148.006 2C147.312 2 146.747 2.13333 146.31 2.4C145.883 2.66667 145.67 3.08267 145.67 3.648C145.67 4.01067 145.771 4.31467 145.974 4.56C146.176 4.79467 146.496 5.00267 146.934 5.184C147.371 5.36533 147.942 5.55733 148.646 5.76C149.499 5.99467 150.198 6.24533 150.742 6.512C151.286 6.768 151.686 7.09333 151.942 7.488C152.208 7.872 152.342 8.368 152.342 8.976C152.342 9.648 152.166 10.224 151.814 10.704C151.462 11.1733 150.966 11.536 150.326 11.792C149.696 12.0373 148.95 12.16 148.086 12.16ZM158.729 12C158.611 12 158.521 11.968 158.457 11.904C158.393 11.8293 158.361 11.7387 158.361 11.632V1.184C158.361 1.06667 158.393 0.976 158.457 0.912C158.521 0.837333 158.611 0.799999 158.729 0.799999H165.337C165.454 0.799999 165.545 0.837333 165.609 0.912C165.673 0.976 165.705 1.06667 165.705 1.184V1.792C165.705 1.90933 165.673 2 165.609 2.064C165.545 2.128 165.454 2.16 165.337 2.16H159.897V5.664H164.985C165.102 5.664 165.193 5.70133 165.257 5.776C165.321 5.84 165.353 5.93067 165.353 6.048V6.64C165.353 6.74667 165.321 6.83733 165.257 6.912C165.193 6.976 165.102 7.008 164.985 7.008H159.897V10.64H165.465C165.582 10.64 165.673 10.672 165.737 10.736C165.801 10.8 165.833 10.8907 165.833 11.008V11.632C165.833 11.7387 165.801 11.8293 165.737 11.904C165.673 11.968 165.582 12 165.465 12H158.729ZM168.432 12C168.315 12 168.224 11.968 168.16 11.904C168.096 11.8293 168.064 11.7387 168.064 11.632V1.184C168.064 1.06667 168.096 0.976 168.16 0.912C168.224 0.837333 168.315 0.799999 168.432 0.799999H172.336C173.541 0.799999 174.496 1.08267 175.2 1.648C175.904 2.21333 176.256 3.05067 176.256 4.16C176.256 4.98133 176.048 5.65333 175.632 6.176C175.227 6.688 174.672 7.04533 173.968 7.248L176.432 11.504C176.464 11.568 176.48 11.6267 176.48 11.68C176.48 11.7653 176.443 11.84 176.368 11.904C176.304 11.968 176.229 12 176.144 12H175.376C175.195 12 175.061 11.952 174.976 11.856C174.891 11.76 174.816 11.664 174.752 11.568L172.432 7.504H169.632V11.632C169.632 11.7387 169.595 11.8293 169.52 11.904C169.456 11.968 169.365 12 169.248 12H168.432ZM169.632 6.144H172.272C173.072 6.144 173.669 5.97867 174.064 5.648C174.459 5.30667 174.656 4.80533 174.656 4.144C174.656 3.49333 174.459 2.99733 174.064 2.656C173.68 2.31467 173.083 2.144 172.272 2.144H169.632V6.144ZM178.916 12C178.799 12 178.708 11.968 178.644 11.904C178.58 11.8293 178.548 11.7387 178.548 11.632V1.184C178.548 1.06667 178.58 0.976 178.644 0.912C178.708 0.837333 178.799 0.799999 178.916 0.799999H182.98C183.77 0.799999 184.452 0.927999 185.028 1.184C185.615 1.44 186.068 1.824 186.388 2.336C186.708 2.83733 186.868 3.46667 186.868 4.224C186.868 4.98133 186.708 5.61067 186.388 6.112C186.068 6.61333 185.615 6.992 185.028 7.248C184.452 7.504 183.77 7.632 182.98 7.632H180.148V11.632C180.148 11.7387 180.111 11.8293 180.036 11.904C179.972 11.968 179.882 12 179.764 12H178.916ZM180.132 6.288H182.9C183.69 6.288 184.282 6.112 184.676 5.76C185.071 5.408 185.268 4.896 185.268 4.224C185.268 3.56267 185.076 3.05067 184.692 2.688C184.308 2.32533 183.711 2.144 182.9 2.144H180.132V6.288Z" fill="#7C858C"/>
</svg>
