<svg width="26" height="30" viewBox="0 0 26 30" fill="none" xmlns="http://www.w3.org/2000/svg">
<path d="M22.2857 21.0938V13.7812C21.5893 13.9219 20.8929 14.0625 20.1964 14.0625H19.5V22.5H5.57143V12.6562C5.57143 8.71875 8.63571 5.625 12.5357 5.625C12.675 3.79688 13.5107 2.25 14.625 0.984375C14.2071 0.421875 13.3714 0 12.5357 0C11.0036 0 9.75 1.26562 9.75 2.8125V3.23438C5.57143 4.5 2.78571 8.29688 2.78571 12.6562V21.0938L0 23.9062V25.3125H25.0714V23.9062L22.2857 21.0938ZM9.75 26.7188C9.75 28.2656 11.0036 29.5312 12.5357 29.5312C14.0679 29.5312 15.3214 28.2656 15.3214 26.7188H9.75ZM25.0714 6.32812C25.0714 9 22.8429 11.25 20.1964 11.25C17.55 11.25 15.3214 9 15.3214 6.32812C15.3214 3.65625 17.55 1.40625 20.1964 1.40625C22.8429 1.40625 25.0714 3.65625 25.0714 6.32812Z" fill="#7C858C"/>
</svg>
